<?xml version="1.0" encoding="utf-8"?>
<!-- Generator: Adobe Illustrator 16.0.4, SVG Export Plug-In . SVG Version: 6.00 Build 0)  -->
<!DOCTYPE svg PUBLIC "-//W3C//DTD SVG 1.1//EN" "http://www.w3.org/Graphics/SVG/1.1/DTD/svg11.dtd">
<svg version="1.1" xmlns="http://www.w3.org/2000/svg" xmlns:xlink="http://www.w3.org/1999/xlink" x="0px" y="0px"
	 width="479.349px" height="302.467px" viewBox="0 0 479.349 302.467" enable-background="new 0 0 479.349 302.467"
	 xml:space="preserve">
<g id="Layer_4">
</g>
<g id="Layer_2">
	<path fill="#FFFFFF" d="M329.28,232.531c-16.4-1.41-33.255-0.109-49.714,0.094c-16.066,0.192-32.128,0.621-48.194,0.769
		c-8.264,0.078-16.537,1.001-24.798,1.269c-4.808,0.156-9.633,0.134-14.434-0.198c-2.63-0.183-8.641-0.344-10.305-2.606
		c-0.256-0.353-0.838-0.021-0.587,0.348c3.435,5.04,11.49,4.727,17.124,4.934c10.107,0.376,20.229-0.506,30.322-0.937
		c15.641-0.667,31.354-0.488,47.007-0.623c17.745-0.155,36.025,0.892,53.646-1.326C330.472,234.113,330.373,232.625,329.28,232.531z
		 M192.834,86.963c5.578,2.987,11.639,2.966,17.813,2.586c5.568-0.341,11.159-0.61,16.724-0.986
		c-0.164,0.167-0.262,0.404-0.189,0.666c0.253,0.888,0.528,1.751,0.853,2.613c0.329,0.867,0.727,2.1,1.65,2.472
		c0.195,0.076,0.562,0.032,0.658-0.191c0.422-0.986-0.234-2.108-0.664-3.006c-0.392-0.832-0.823-1.639-1.244-2.458
		c-0.033-0.067-0.076-0.111-0.126-0.157c0.574-0.04,1.148-0.064,1.717-0.109c0.793-0.062,0.734-1.187,0.102-1.431
		c-5.145-2.003-10.998-1.212-16.362-0.7c-6.917,0.657-13.749,1.101-20.549-0.671C192.383,85.372,192.169,86.606,192.834,86.963z
		 M347.195,120.907c-0.021,0.12-0.039,0.234-0.06,0.353c-0.325-0.237-0.743-0.366-1.245-0.257
		c-3.655,0.792-7.309,1.405-10.958,1.942c1.08-5.51,0.721-11.421,0.766-16.987c0.021-2.475-0.03-4.942-0.123-7.413
		c-0.035-0.865-0.643-1.305-0.72-2.03c-0.011-0.102-0.174-0.134-0.188-0.021c-0.087,0.661-0.684,1.129-0.797,1.895
		c-0.44,2.848-0.478,5.793-0.65,8.662c-0.314,5.198-0.954,10.949,0.06,16.142c-6.586,0.908-13.167,1.459-19.778,1.823
		c2.513-2.523,4.595-5.661,7.041-8.237c3.602-3.794,7.429-7.376,11.1-11.107c0.372-0.38-0.182-0.978-0.569-0.607
		c-3.752,3.626-7.684,7.055-11.396,10.723c-2.613,2.581-6.175,5.697-7.459,9.302c-6.85,0.355-13.733,0.513-20.682,0.647
		c4.222-5.031,8.099-10.132,12.829-14.781c5.369-5.278,11.233-10.049,16.954-14.938c0.222-0.187-0.07-0.577-0.305-0.403
		c-6.058,4.527-11.943,9.232-17.516,14.349c-4.838,4.441-10.282,9.684-13.017,15.795c-0.809,0.017-1.605,0.033-2.416,0.047
		c-10.541,0.203-21.064,0.742-31.614,0.708c-10.704-0.035-21.308-1.071-31.973-1.589c0.184-1.779,0.044-3.57-0.085-5.379
		c-0.041-0.565-0.063-1.13-0.091-1.695c0.102,0.069,0.245,0.078,0.34-0.039c5.84-7.015,11.621-13.574,18.397-19.749
		c0.229-0.212-0.128-0.624-0.368-0.415c-6.544,5.685-14.383,11.861-18.396,19.726c-0.041-0.804-0.087-1.608-0.13-2.411
		c-0.056-0.947-0.305-2.217-0.262-3.319c0.126,0.214,0.248,0.437,0.331,0.681c0.143,0.281,0.576,0.06,0.485-0.229
		c-0.479-1.505-0.039-1.521-0.82-2.323c-0.191-0.194-0.565-0.171-0.766-0.019c-0.171,0.13-0.303,0.291-0.424,0.453
		c0.045-0.188-0.03-0.404-0.279-0.398c-0.293,0.008-0.587,0.032-0.881,0.042c4.223-4.869,8.331-9.399,13.431-13.455
		c0.524-0.047,1.052-0.097,1.565-0.137c4.385-0.328,8.76-0.881,13.131-1.355c9.503-1.035,19.01-2.022,28.555-2.67
		c9.21-0.624,18.445-0.854,27.666-0.471c8.869,0.369,17.209,2.333,25.913,3.711c1.076,0.168,1.875-1.406,0.734-1.905
		c-7.177-3.127-15.667-3.683-23.382-4.211c-9.188-0.628-18.41-0.388-27.596,0.136c-9.182,0.526-18.339,1.453-27.482,2.474
		c-4.978,0.557-9.958,1.137-14.932,1.734c-3.039,0.366-6.684,0.362-9.379,1.908c-0.217,0.124-0.134,0.412,0.076,0.482
		c1.394,0.475,2.868,0.463,4.346,0.357c-5.011,3.71-10.394,8.031-13.563,13.446c-6.26,0.269-12.527,0.986-18.792,1.337
		c-4.92,0.28-9.968,0.843-14.516,2.842c-0.06-0.234-0.119-0.476-0.184-0.701c-0.254-0.842-1.66-0.888-1.645,0.119
		c0.046,2.652-0.082,5.553,0.166,8.329c-2.07-1.042-4.688-1.928-7.524-2.535c3.413-4.533,6.301-9.479,9.729-14.021
		c3.808-5.048,8.087-9.274,12.893-13.347c0.186-0.157,0.015-0.456-0.215-0.367c-2.444,0.925-4.636,2.646-6.617,4.617
		c-0.032-1.1-0.299-2.215-0.502-3.272c-0.143-0.738-0.316-1.464-0.433-2.204c0.294,0.129,0.656-0.174,0.448-0.512
		c-0.357-0.576-0.438-1.263-1.15-1.48c-0.366-0.115-0.747,0.196-0.827,0.541c-0.336,1.477-0.489,1.979-0.323,3.287
		c0.095,0.701,0.227,1.394,0.355,2.087c0.134,0.699,0.316,1.371,0.541,2.028c-0.063-0.029-0.111-0.079-0.193-0.088
		c-3.189-0.346-6.418-0.172-9.615-0.054c-2.333,0.085-4.671,0.069-7.005,0.123c-1.379,0.03-2.723-0.318-3.401,0.376
		c0.615-0.631-0.294-1.529-0.948-0.967c-2.558,2.182,4.658,2.954,5.49,3.03c0.294,0.025,0.606,0.05,0.917,0.075
		c-0.008,0.013-0.026,0.014-0.032,0.031c-0.771,1.701-1.712,3.263-2.834,4.757c-0.834,1.111-1.775,2.139-2.623,3.234
		c-0.334-2.477-0.701-4.952-1.148-7.407c-0.14-0.764-1.353-0.601-1.34,0.162c0.083,3.579,0.359,7.148,0.65,10.716
		c0.219,2.625,0.29,5.293,1.067,7.79c-5.919-0.163-11.637,1.155-14.484,4.948c-0.322,0.43,0.034,1.11,0.589,1.018
		c0.686-0.108,1.362-0.229,2.028-0.352c-0.348,4.827,1.375,9.95,2.621,14.526c2.197,8.049,4.983,15.979,6.723,24.146
		c4.983,23.349,6.459,47.32,10.453,70.808c0.113,0.662,1.123,0.554,1.148-0.097c0.974-22.71-4.041-46.117-8.394-68.328
		c-1.493-7.609-4.189-14.905-6.544-22.277c-1.75-5.505-5.245-12.811-5.037-18.964c4.421-0.837,8.594-1.747,13.293-1.471
		c4.137,0.241,8.306,1.313,12.462,1.178c0.134,0.833,0.303,1.647,0.548,2.428c0.197,0.637,1.007,0.488,1.182-0.063
		c1.029-3.187,0.814-7.045,0.064-10.44c5.995-0.555,11.964-1.14,17.976-1.491c5.6-0.321,12.094-0.257,16.891-3.547
		c-0.926,1.515-0.446,4.019-0.509,5.688c-0.139,3.5-0.24,7.417,1.381,10.598c0.186,0.369,0.727,0.175,0.808-0.162
		c0.071-0.294,0.103-0.594,0.152-0.89c20.551,4.741,42.756,2.685,63.641,2.489c10.092-0.096,20.179-0.069,30.268-0.446
		c9.288-0.347,19.607-0.77,28.447-3.914c-2.895,17.4-7.024,34.491-10.463,51.79c-2.058,10.334-3.095,20.668-3.771,31.172
		c-0.631,9.771-1.965,19.555-2.389,29.321c-0.063,1.452,2.091,1.749,2.488,0.372c2.567-8.851,2.625-18.506,3.166-27.651
		c0.618-10.458,1.396-20.844,3.336-31.151c3.519-18.659,9.02-37.543,9.141-56.638C348.224,120.445,347.289,120.32,347.195,120.907z
		 M172.694,118.504c0.264-2.218-0.063-4.386-0.323-6.662c-0.15-1.298-0.325-2.595-0.497-3.892c2.732-2.075,4.619-5.515,5.811-8.638
		c0.024-0.057,0.005-0.099-0.008-0.14c1.708,0.139,3.585,0.254,5.472,0.246c-3.776,3.758-7.215,8.105-9.941,12.676
		c-0.108,0.178,0.165,0.365,0.297,0.208c3.542-4.211,6.394-8.881,10.193-12.9c2.983-0.058,5.964-0.448,8.319-1.613
		c0.166-0.083,0.255-0.225,0.316-0.376c0.038,0.095,0.077,0.19,0.114,0.285c-1.338,1.471-2.583,2.998-3.736,4.384
		c-4.242,5.102-8.701,10.911-11.353,17.055C175.835,118.844,174.274,118.621,172.694,118.504z M188.229,99.754
		c-5.056,4.158-9.723,9.719-12.353,15.755c-0.11,0.246,0.266,0.411,0.411,0.204c3.897-5.502,7.217-10.949,12.189-15.625
		C188.664,99.91,188.437,99.581,188.229,99.754z M206.615,90.901c-6.619,6.229-13.468,13.067-17.791,21.149
		c-0.158,0.287,0.227,0.505,0.424,0.258c5.682-7.258,11.369-14.358,17.655-21.111C207.061,91.028,206.788,90.74,206.615,90.901z
		 M204.834,106.224c5.175-4.836,9.154-10.81,14.362-15.652c0.258-0.243-0.139-0.59-0.399-0.367
		c-5.331,4.55-10.247,9.979-14.284,15.715C204.373,106.122,204.646,106.401,204.834,106.224z M214.451,106.916
		c2.041-2.016,3.719-4.462,5.676-6.582c2.275-2.475,4.701-4.804,7.208-7.042c0.24-0.214-0.095-0.564-0.334-0.361
		c-4.548,3.811-10.303,8.295-13.031,13.682C213.808,106.921,214.233,107.129,214.451,106.916z M217.824,109.584
		c1.812-2.054,3.234-4.476,5.001-6.589c2.052-2.453,4.307-4.742,6.533-7.032c0.188-0.185-0.121-0.434-0.303-0.257
		c-2.042,1.995-4.078,3.998-6.035,6.082c-2.068,2.2-4.556,4.708-5.607,7.592C217.322,109.646,217.661,109.768,217.824,109.584z
		 M253.875,97.375c0.238-0.188-0.063-0.527-0.297-0.355c-8.548,6.188-16.249,14.961-21.826,23.883
		c-0.156,0.248,0.177,0.472,0.363,0.257C239.351,113.138,245.275,104.111,253.875,97.375z M239.621,122.577
		c9.854-8.251,18.854-18.252,27.235-27.973c0.05-0.056,0.05-0.163,0.017-0.229c-0.08-0.149-0.16-0.299-0.236-0.449
		c-0.071-0.129-0.193-0.161-0.323-0.09c-0.638,0.362-1.132,0.831-1.79,1.162c-0.212,0.11-0.017,0.414,0.193,0.312
		c0.206-0.098,0.413-0.196,0.617-0.292c2.4-1.934-1.92,2.403-1.597,2.074c-3.235,3.287-6.481,6.572-9.724,9.846
		c-4.985,5.02-10.245,9.843-14.789,15.272C238.996,122.486,239.364,122.798,239.621,122.577z M251.258,123.936
		c4.764-5.427,9.053-10.969,14.289-16.01c2.383-2.302,4.801-4.57,7.202-6.854c1.193-1.134,2.357-2.295,3.517-3.465
		c0.117-0.12,0.635-0.641,1.001-1.074c0.39-0.223,0.783-0.447,1.167-0.666c0.089-0.05,0.147-0.142,0.13-0.247
		c-0.03-0.173-0.062-0.345-0.092-0.519c-0.031-0.183-0.266-0.242-0.399-0.125c-4.948,4.381-9.912,8.766-14.708,13.319
		c-4.693,4.458-9.921,9.38-12.657,15.353C250.553,123.992,251.042,124.183,251.258,123.936z M260.116,125.297
		c4.542-5.414,8.522-11.051,13.552-16.079c5.834-5.831,12.113-11.224,18.412-16.545c0.323-0.275-0.113-0.739-0.44-0.482
		c-6.564,5.113-13.072,10.245-19.118,15.97c-4.944,4.671-10.591,10.336-12.97,16.856C259.421,125.376,259.9,125.559,260.116,125.297
		z M276.405,119.291c9.206-7.941,17.564-17.038,26.557-25.256c0.303-0.278-0.104-0.753-0.415-0.483
		c-0.013,0.01-2.237,1.737-2.696,2.104c-0.078,0.064-0.084,0.136-0.071,0.205c-0.492,0.342-0.992,0.708-1.371,1.024
		c-2.812,2.322-5.535,4.757-8.223,7.217c-4.978,4.559-10.221,9.226-14.268,14.649C275.682,119.065,276.073,119.577,276.405,119.291z
		 M287.291,121.271c4.208-3.992,7.663-8.81,11.593-13.077c4.805-5.21,10.031-9.893,15.676-14.16
		c0.167-0.126,0.121-0.429-0.056-0.524c-0.872-0.48-1.63,0.224-2.405,0.724c-0.307,0.202,0.004,0.601,0.311,0.49
		c-0.578,0.35-1.171,0.708-1.097,0.653c-0.953,0.66-1.937,1.416-2.846,2.145c-2.77,2.223-5.396,4.588-7.931,7.078
		c-4.931,4.841-10.206,10.251-13.7,16.25C286.676,121.137,287.019,121.532,287.291,121.271z M331.902,97.073
		c-4.102,3.705-8.527,7.046-12.672,10.7c-4.354,3.837-10.365,8.292-12.688,13.768c-0.15,0.351,0.24,0.688,0.543,0.414
		c4.195-3.756,7.71-8.382,11.858-12.258c4.412-4.123,9.066-7.991,13.224-12.376C332.336,97.146,332.071,96.918,331.902,97.073z
		 M330.851,113.099c0.288-0.174,0.013-0.661-0.288-0.511c-2.115,1.056-3.871,2.799-5.527,4.454
		c-1.588,1.584-4.531,4.355-4.284,6.788c0.027,0.295,0.438,0.427,0.65,0.229c1.148-1.084,1.93-2.947,2.858-4.159
		c0.757-0.992,1.609-1.917,2.448-2.843C327.883,115.759,329.319,114.02,330.851,113.099z M326.81,121.274
		c1.679-1.184,3.089-2.736,4.757-3.959c0.426-0.316,0.052-1.034-0.424-0.736c-1.823,1.149-3.567,2.516-4.831,4.275
		C326.077,121.183,326.527,121.47,326.81,121.274z"/>
	<g>
		<g>
			<g>
				<path fill="#FFFFFF" d="M189.224,13.76c-1.691,2.593-2.269,6.268-2.989,9.216c-1.136,4.648-2.06,9.355-2.892,14.066
					c-0.07,0.393,0.775,0.75,0.931,0.355c0.426-0.842,0.68-1.734,0.762-2.675c0.062-0.333-0.733-0.653-0.829-0.255
					c-0.139,0.908-0.427,1.767-0.864,2.575c0.31,0.118,0.621,0.237,0.931,0.355c1.301-7.794,2.643-15.861,5.452-23.281
					C189.8,13.92,189.355,13.559,189.224,13.76L189.224,13.76z"/>
			</g>
		</g>
		<g>
			<g>
				<path fill="#FFFFFF" d="M178.574,21.187c5.496,0.308,10.898,1.422,16.382,1.793c0.264,0.018-0.002-0.428-0.178-0.447
					c-5.482-0.625-10.95-1.518-16.463-1.817C178.028,20.7,178.36,21.174,178.574,21.187L178.574,21.187z"/>
			</g>
		</g>
		<g>
			<g>
				<path fill="#FFFFFF" d="M190.658,25.664c-1.021,2.372-0.992,4.74,0.219,7.026c0.061,0.115,0.298,0.299,0.438,0.208
					c1.107-0.717,2.406-1.074,3.511-1.795c-0.199-0.086-0.398-0.173-0.597-0.26c0.712,1.404,2.154,2.166,2.863,3.565
					c0.099,0.196,0.444,0.383,0.651,0.248c2.852-1.868,3.908-5.291,5.63-8.067c0.197-0.317-0.714-0.741-0.912-0.363
					c-1.44,2.753-2.661,6.135-5.342,7.922c0.217,0.083,0.434,0.165,0.65,0.248c-0.723-1.386-2.182-2.145-2.906-3.534
					c-0.089-0.17-0.4-0.395-0.597-0.26c-0.958,0.657-2.067,1.065-3.079,1.631c-0.448,0.25-0.851-3.039-0.836-2.857
					c-0.096-1.179,0.266-2.334,0.671-3.421C191.085,25.782,190.742,25.467,190.658,25.664L190.658,25.664z"/>
			</g>
		</g>
		<g>
			<g>
				<path fill="#FFFFFF" d="M204.349,26.917c-2.638,1.389-0.321,6.758,1.365,8.103c0.115,0.092,0.321,0.143,0.432,0.023
					c5.367-5.834,7.944-13.438,10.298-20.859c0.12-0.377-0.746-0.738-0.864-0.379c-1.866,5.698-3.239,11.435-2.301,17.439
					c0.046,0.296,0.529,0.5,0.793,0.405c4.78-1.719,6.004-8.677,8.115-12.676c-0.331-0.11-0.661-0.22-0.992-0.331
					c-2.314,4.5-3.919,9.324-3.874,14.424c0.003,0.4,1.004,0.64,1.007,0.162c0.034-5.071,1.553-9.784,3.858-14.255
					c0.188-0.365-0.786-0.72-0.992-0.331c-2.008,3.794-3.26,10.748-7.791,12.386c0.297,0.124,0.594,0.247,0.891,0.37
					c-0.961-5.948,0.465-11.542,2.147-17.215c-0.288-0.126-0.576-0.252-0.864-0.379c-1.335,4.658-2.957,9.209-5.11,13.555
					c-0.949,1.915-2.113,3.699-3.379,5.416c-2.281,3.095-4.452-4.199-2.468-5.496C204.768,27.187,204.49,26.843,204.349,26.917
					L204.349,26.917z"/>
			</g>
		</g>
		<g>
			<g>
				<path fill="#FFFFFF" d="M208.832,21.015c4.816,1.442,10.112,2.873,15.117,1.573c0.214-0.055-0.088-0.436-0.269-0.4
					c-5.1,0.991-9.992-0.18-14.907-1.529C208.52,20.589,208.674,20.967,208.832,21.015L208.832,21.015z"/>
			</g>
		</g>
		<g>
			<g>
				<path fill="#FFFFFF" d="M221.011,29.118c1.833-0.501,2.761-0.742,3.624-2.577c0.14-0.298-0.444-0.628-0.675-0.458
					c-1.62,1.188-5.518,6.355-1.138,6.989c3.842,0.556,6.183-4.008,7.971-6.727c-0.302-0.113-0.604-0.227-0.906-0.34
					c-0.115,2-0.236,3.966-0.095,5.967c0.024,0.342,0.902,0.649,0.998,0.247c0.491-2.059,0.188-5.627,2.848-5.739
					c1.837-0.077,3.504-0.419,5.102-1.354c0.309-0.181-0.348-0.658-0.597-0.543c-2.23,1.03-4.459,1.198-6.88,1.283
					c-0.115,0.004-0.308,0.05-0.335,0.189c-0.393,1.943-0.677,3.901-1.126,5.833c0.333,0.083,0.665,0.165,0.998,0.247
					c-0.153-1.991-0.048-3.949,0.051-5.939c0.019-0.388-0.755-0.573-0.951-0.271c-1.078,1.661-2.143,3.295-3.481,4.762
					c-0.821,0.899-4.332,3.728-4.723-0.003c-0.168-1.604,1.808-3.232,2.896-4.091c-0.225-0.153-0.45-0.306-0.675-0.459
					c-0.725,2.068-1.587,2.021-3.195,2.571C220.497,28.78,220.823,29.169,221.011,29.118L221.011,29.118z"/>
			</g>
		</g>
		<g>
			<g>
				<path fill="#FFFFFF" d="M250.027,25.16c-1.287,0.883-1.771,3.592-2.392,4.931c-0.126,0.272,0.46,0.663,0.579,0.414
					c1.34-2.82,2.669-5.567,4.768-7.917c-0.229-0.079-0.457-0.158-0.686-0.237c0.854,1.727,1.266,3.542,1.505,5.447
					c0.038,0.297,0.681,0.663,0.861,0.31c0.874-1.708,2.104-3.034,3.473-4.351c-0.29-0.118-0.58-0.236-0.869-0.354
					c0.271,2-0.296,5.212,1.327,6.73c0.19,0.179,1,0.267,0.675-0.144c-1.241-1.569-0.809-4.492-1.075-6.377
					c-0.044-0.312-0.618-0.597-0.869-0.353c-1.406,1.361-2.637,2.699-3.508,4.464c0.287,0.104,0.574,0.207,0.861,0.31
					c-0.288-1.997-0.758-3.913-1.676-5.719c-0.083-0.163-0.519-0.428-0.686-0.237c-2.078,2.375-3.44,5.132-4.681,8.013
					c0.2,0.12,0.401,0.24,0.602,0.36c0.59-1.44,0.96-3.829,2.08-4.955C250.447,25.365,250.178,25.057,250.027,25.16L250.027,25.16z"
					/>
			</g>
		</g>
		<g>
			<g>
				<path fill="#FFFFFF" d="M264.895,23.786c0.273-1.583,0.268-0.438,0.29-1.375c0.003-0.131-0.179-0.375-0.327-0.271
					c-1.667,1.173-2.749,2.642-3.359,4.567c-0.079,0.248,0.465,0.583,0.632,0.358c1.111-1.497,2.099-3.017,2.923-4.691
					c-0.239-0.136-0.479-0.273-0.718-0.409c-0.643,1.656-1.647,4.713,1.036,4.926c2.41,0.19,5.026-2.423,6.297-4.169
					c-0.267-0.132-0.533-0.263-0.8-0.395c-0.602,2.169-1.183,4.32-1.484,6.553c-0.044,0.326,0.791,0.642,0.902,0.293
					c0.85-2.668,1.746-5.272,3.974-7.115c-0.295-0.084-0.59-0.169-0.885-0.254c1.069,2.464,1.418,5.188,2.684,7.56
					c0.119,0.223,0.892,0.451,0.751,0.035c-0.854-2.515-1.456-5.139-2.516-7.575c-0.125-0.287-0.632-0.463-0.885-0.254
					c-2.263,1.873-3.168,4.499-4.011,7.233c0.301,0.098,0.601,0.196,0.902,0.293c0.272-2.169,0.823-4.262,1.369-6.374
					c0.092-0.356-0.58-0.706-0.8-0.395c-0.865,1.222-1.978,2.171-3.224,2.985c-0.679,0.443-1.443,0.78-2.24,0.936
					c-2.006,0.392-0.468-3.551-0.352-3.873c0.114-0.316-0.571-0.716-0.718-0.409c-0.796,1.665-1.774,3.167-2.815,4.686
					c0.211,0.12,0.422,0.239,0.633,0.358c0.128-0.47,2.709-5.342,2.46-3.41C264.598,23.73,264.863,23.975,264.895,23.786
					L264.895,23.786z"/>
			</g>
		</g>
		<g>
			<g>
				<path fill="#FFFFFF" d="M284.568,21.634c-2.935,0.315-4.62,2.62-4.915,5.436c-0.028,0.269,0.469,0.591,0.666,0.355
					c1.568-1.875,2.602-4.075,3.935-6.106c-0.25-0.135-0.5-0.27-0.75-0.404c-1.472,2.456-1.862,5.403,1.111,6.799
					c0.459,0.215,0.705-0.201,0.244-0.444c-2.482-1.31-1.77-3.949-0.605-5.951c0.175-0.301-0.57-0.708-0.75-0.404
					c-1.226,2.066-2.318,4.217-3.829,6.097c0.222,0.118,0.444,0.237,0.666,0.355c0.194-2.653,1.668-4.902,4.431-5.303
					C285.041,22.024,284.76,21.613,284.568,21.634L284.568,21.634z"/>
			</g>
		</g>
		<g>
			<g>
				<path fill="#FFFFFF" d="M291.625,19.988c-2.473,0.507-3.936,2.806-5.005,4.921c-0.14,0.275,0.443,0.669,0.627,0.415
					c1.147-1.597,2.243-3.229,3.343-4.86c-0.231-0.117-0.463-0.234-0.693-0.352c-0.445,3.672-0.796,7.336-1.866,10.896
					c-0.553,1.842-1.431,3.402-2.757,4.797c-0.439,0.462-0.939,0.852-1.448,1.232c-2.156,1.608-2.883-0.746-3.006-2.375
					c-0.023-0.313-0.781-0.643-0.771-0.276c0.113,4.004,2.491,4.964,5.493,2.381c4.382-3.771,4.623-11.048,5.068-16.364
					c0.022-0.262-0.515-0.621-0.693-0.352c-1.084,1.629-2.177,3.253-3.297,4.858c0.209,0.138,0.418,0.276,0.627,0.415
					c0.991-2.083,2.327-4.261,4.682-4.916C292.157,20.346,291.816,19.949,291.625,19.988L291.625,19.988z"/>
			</g>
		</g>
		<g>
			<g>
				<path fill="#FFFFFF" d="M293.103,23.557c2.444-1.274,4.219-2.964,5.552-5.396c0.119-0.217-0.25-0.55-0.462-0.438
					c-2.874,1.51-5.349,4.742-3.202,7.848c0.119,0.173,0.393,0.355,0.615,0.271c3.685-1.396,5.583-4.815,7.775-7.866
					c-0.271-0.131-0.544-0.261-0.816-0.391c-0.872,2.738-1.731,5.482-2.644,8.207c0.314,0.117,0.629,0.234,0.943,0.351
					c0.463-2.575,1.236-4.982,3.393-6.633c-0.326-0.103-0.651-0.206-0.977-0.309c0.221,1.542,0.718,2.999,0.939,4.541
					c0.055,0.38,0.713,0.542,0.977,0.309c1.744-1.544,3.162-3.367,5.079-4.721c-0.301-0.122-0.601-0.244-0.9-0.366
					c0.018,2.397-0.321,4.784,0.143,7.155c0.076,0.389,1.068,0.616,0.993,0.171c-0.407-2.391-0.097-4.769-0.11-7.177
					c-0.002-0.331-0.666-0.531-0.9-0.366c-1.967,1.386-3.438,3.249-5.229,4.834c0.326,0.103,0.651,0.206,0.977,0.309
					c-0.221-1.542-0.718-2.999-0.939-4.541c-0.057-0.397-0.703-0.519-0.977-0.309c-2.186,1.683-2.958,4.108-3.41,6.752
					c-0.068,0.402,0.828,0.752,0.943,0.351c0.79-2.737,1.686-5.442,2.517-8.167c0.111-0.362-0.604-0.703-0.816-0.391
					c-0.606,0.887-6.511,9.45-7.629,6.566c-0.827-2.134,1.457-4.437,2.938-5.529c-0.693,0.512-1.306,1.69-1.909,2.342
					c-0.859,0.929-2.039,1.606-3.131,2.193C292.632,23.264,292.936,23.644,293.103,23.557L293.103,23.557z"/>
			</g>
		</g>
		<g>
			<g>
				<path fill="#FFFFFF" d="M312.918,22.831c2.269-0.143,3.604-0.928,4.814-2.813c0.176-0.273-0.415-0.598-0.632-0.459
					c-1.771,1.126-5.664,5.501-1.534,6.57c1.343,0.347,2.661-0.15,3.761-0.941c1.131-0.813,2.15-1.7,3.151-2.667
					c0.81-0.612,0.771-0.746-0.116-0.4c-0.236,0.833-0.27,2.351-0.459,3.107c-0.092,0.365,0.57,0.664,0.831,0.438
					c0.361-0.312,4.538-4.077,4.735-3.345c0.337,1.256,0.679,2.276,1.47,3.308c0.772,1.008,2.051,1.149,3.191,0.882
					c4.944-1.157,8.877-9.367,10.587-13.582c0.133-0.328-0.59-0.691-0.804-0.443c-2.653,3.066-8.334,20.438,1.114,16.088
					c0.422-0.194-0.264-0.708-0.565-0.583c-7.382,3.068-2.049-11.535-0.353-14.282c-0.364-0.802-0.62-0.782-0.767,0.058
					c-0.342,0.762-0.747,1.496-1.143,2.229c-0.926,1.712-2.009,3.34-3.149,4.914c-0.918,1.265-1.959,2.422-3.095,3.493
					c-3.223,3.039-5.217,0.242-5.842-3.203c-0.049-0.269-0.5-0.57-0.768-0.407c-2.698,1.647-5.516,6.659-3.814,0.66
					c0.1-0.352-0.584-0.681-0.829-0.438c-1.066,1.057-2.13,2.088-3.289,3.044c-2.443,2.017-5.814-0.024-3.236-2.833
					c1.923-2.095-2.128,0.998-3.553,1.111C312.309,22.364,312.689,22.845,312.918,22.831L312.918,22.831z"/>
			</g>
		</g>
		<g>
			<g>
				<path fill="#FFFFFF" d="M334.63,20.343c3.404-0.216,6.805-0.247,10.216-0.244c0.458,0,0.008-0.564-0.282-0.568
					c-3.433-0.039-6.863-0.051-10.285,0.253C333.923,19.817,334.384,20.359,334.63,20.343L334.63,20.343z"/>
			</g>
		</g>
	</g>
	<g>
		<g>
			<g>
				<path fill="#FFFFFF" d="M351.469,51.55c-2.133-5.057-7.657,2.879-8.326,5.299c-0.064,0.234,0.349,0.442,0.526,0.436
					c3.133-0.12,5.014-3.752,6.321-6.14c2.046-3.737,3.482-7.854,4.696-11.928c0.11-0.371-0.702-0.736-0.865-0.378
					c-2.377,5.2-4.609,10.967-2.622,16.634c0.11,0.316,0.628,0.371,0.886,0.271c3.573-1.386,5.45-4.503,7.566-7.521
					c-0.328-0.129-0.657-0.259-0.986-0.389c-0.878,4.192-1.465,10.015,4.591,8.569c0.579-0.138-0.135-0.729-0.504-0.646
					c-5.274,1.18-3.613-4.962-3.057-7.611c0.084-0.399-0.766-0.704-0.987-0.389c-1.044,1.488-2.06,2.985-3.206,4.397
					c-0.67,0.8-1.436,1.5-2.297,2.1c-1.688,1.259-1.657-0.981-1.8-2.184c-0.513-4.347,1.597-8.969,3.281-12.854
					c-0.288-0.126-0.577-0.252-0.865-0.378c-1.274,4.648-3.067,9.266-5.485,13.438c-0.633,1.091-1.381,2.095-2.239,3.018
					c-0.6,0.646-2.527,2.151-1.61,0.234c0.612-1.28,4.961-7.542,6.532-4.01C351.1,51.701,351.593,51.844,351.469,51.55
					L351.469,51.55z"/>
			</g>
		</g>
		<g>
			<g>
				<path fill="#FFFFFF" d="M368.254,48.185c-3.462,0.108-5.453,2.26-6.424,5.488c-0.073,0.244,0.458,0.584,0.624,0.359
					c0.09-0.122,2.271-2.458,2.265-2.478c0.597,2.074,0.181,4.487-0.18,6.562c-0.4,2.302-1.339,4.455-2.419,6.502
					c-1.55,2.938,0.741-0.78,1.122-1.487c2.065-3.836,5.513-6.975,8.369-10.218c2.278-2.585,0.404-0.199,0.72-1.613
					c-0.266,1.19-0.719,2.822-0.232,4.022c1.199,2.958,4.179,3.083,6.528,1.325c4.209-3.147,6.354-9.826,8.058-14.558
					c0.136-0.376-0.652-0.699-0.862-0.379c-2.771,4.209-3.918,9.489-1.845,14.238c0.11,0.252,0.897,0.565,0.769,0.123
					c-1.16-3.982-1.021-7.523,0.469-11.416c0.021-0.055,0.942-3.838,0.139-1.637c-0.457,1.251-0.985,2.476-1.516,3.697
					c-1.231,2.834-2.706,5.57-4.602,8.017c-0.738,0.952-1.637,1.699-2.697,2.276c-5.364,2.916-3.395-5.38-3.133-6.309
					c0.103-0.362-0.564-0.688-0.794-0.396c-4.187,5.325-9.721,9.708-11.893,16.334c-0.122,0.375,0.604,0.684,0.829,0.388
					c3.395-4.47,5.268-10.949,3.592-16.439c-0.069-0.228-0.538-0.542-0.726-0.273c-2.25,2.796-2.38,2.899-0.392,0.308
					c1.135-1.417,2.608-2.088,4.423-2.015C368.708,48.594,368.441,48.179,368.254,48.185L368.254,48.185z"/>
			</g>
		</g>
		<g>
			<g>
				<path fill="#FFFFFF" d="M382.582,50.518c0.931-0.196,7.545-0.479,6.914,0.476c-0.695,1.052-1.053,2.441-1.542,3.59
					c-0.122,0.285,0.369,0.598,0.609,0.458c1.824-1.058,3.283-2.386,4.794-3.843c-0.244-0.151-0.489-0.302-0.733-0.454
					c-0.184,0.668-0.366,1.338-0.548,2.007c-0.066,0.244,0.197,0.42,0.399,0.483c7.302,2.284,10.596-9.849,10.57-15.069
					c-0.001-0.349-0.627-0.548-0.87-0.353c-3.744,2.999-8.671,17.877,0.096,16.771c0.564-0.071-0.09-0.705-0.443-0.667
					c-6.89,0.729-1.772-13.254,1.16-15.607c-0.291-0.118-0.581-0.235-0.871-0.353c0.019,3.041-0.881,6.041-2.027,8.831
					c-0.622,1.515-1.48,2.918-2.522,4.178c-1.066,1.29-4.99,3.385-4.146,0.11c0.071-0.279-0.562-0.574-0.753-0.385
					c-2.002,1.975-5.967,6.043-2.168-0.045c0.131-0.209-0.181-0.414-0.346-0.454c-2.712-0.659-5.135-0.724-7.865-0.123
					C382.07,50.116,382.393,50.557,382.582,50.518L382.582,50.518z"/>
			</g>
		</g>
		<g>
			<g>
				<path fill="#FFFFFF" d="M378.89,42.202c0.606,0,0.177-0.63-0.226-0.63C378.058,41.572,378.487,42.202,378.89,42.202
					L378.89,42.202z"/>
			</g>
		</g>
		<g>
			<g>
				<path fill="#FFFFFF" d="M363.775,40.188c0.503,0-0.042-0.606-0.362-0.606C362.91,39.582,363.455,40.188,363.775,40.188
					L363.775,40.188z"/>
			</g>
		</g>
		<g>
			<g>
				<path fill="#FFFFFF" d="M423.298,43.263c-1.013-4.51-7.453,1.4-5.847,5.038c0.08,0.182,0.437,0.394,0.625,0.254
					c2.179-1.611,3.896-3.66,5.645-5.709c-0.265-0.125-0.528-0.25-0.793-0.376c-0.396,2.515-0.86,5.021-0.088,7.51
					c0.569,1.836,3.014,1.073,4.19,0.366c0.318-0.191-0.379-0.669-0.663-0.51c-0.327,0.163-0.653,0.325-0.98,0.487
					c-1.501,0.238-2.174-0.391-2.017-1.887c-0.089-0.575-0.067-1.167-0.058-1.747c0.023-1.331,0.278-2.661,0.47-3.975
					c0.041-0.282-0.604-0.602-0.792-0.376c-1.705,2.042-3.387,4.079-5.507,5.71c0.208,0.084,0.417,0.169,0.626,0.254
					c-0.718-1.536,0.003-3.15,0.946-4.413c0.699-0.936,3.178-3.122,3.795-0.726C422.902,43.365,423.371,43.589,423.298,43.263
					L423.298,43.263z"/>
			</g>
		</g>
		<g>
			<g>
				<path fill="#FFFFFF" d="M433.767,39.675c-0.825,0.502-1.311,1.012-1.647,1.983c-0.49,1.415-3.044,7.32,0.142,4.519
					c2.924-2.571,6.477-3.9,8.862-7.11c0.199-0.269-0.472-0.619-0.688-0.458c-2.604,1.929-2.076,5.39-2.297,8.273
					c-0.158,2.054,0.4,0.871,1.917,0.026c1.19-0.663,2.383-1.293,3.547-2.004c1.724-1.052,2.887-2.459,3.945-4.126
					c0.209-0.329-0.66-0.649-0.892-0.422c-3.761,3.705-0.798,6.886,3.778,5.379c5.734-1.888,8.859-11.077,10.413-16.156
					c0.118-0.386-0.656-0.664-0.9-0.42c-4.46,4.462-8.593,15.93,0.283,17.653c0.526,0.102,0.248-0.519-0.101-0.599
					c-5.351-1.234-4.415-6.717-3.029-10.603c0.623-1.748,1.592-3.379,2.693-4.86c0.737-0.524,0.689-0.757-0.143-0.699
					c-0.307,1.002-0.693,1.98-1.072,2.957c-1.674,4.32-4.02,8.965-7.92,11.66c-1.848-0.854-3.753-1.52-5.718-1.999
					c-1.157,1.336-2.862,2.168-4.385,3.009c-1.632,0.902-3.208,1.772-4.708,2.879c-0.289,0.213,0.287,0.525,0.43,0.56
					c3.077,0.764,2.822-2.3,2.872-4.608c0.032-1.495,0.195-2.921,0.835-4.292c0.424-0.908-3.546,2.231-4.214,2.677
					c-2.397,1.604-4.835,2.888-6.449,5.353c-0.175,0.266,0.485,0.664,0.685,0.458c2.229-2.297,1.51-6.732,4.126-8.62
					C434.299,39.963,433.931,39.574,433.767,39.675L433.767,39.675z"/>
			</g>
		</g>
		<g>
			<g>
				<path fill="#FFFFFF" d="M453.471,36.975c2.822,0.16,5.619-0.048,8.425-0.343c0.352-0.037-0.111-0.549-0.363-0.528
					c-2.778,0.233-5.544,0.461-8.333,0.309C452.752,36.39,453.186,36.959,453.471,36.975L453.471,36.975z"/>
			</g>
		</g>
		<g>
			<g>
				<path fill="#FFFFFF" d="M416.658,56.911c1.226,2.267,0.116,5.423-0.447,7.746c-0.537,2.213-1.092,4.389-1.751,6.568
					c-0.385,1.272-0.392,2.482,1.126,2.496c0.514,0.004-0.06-0.596-0.369-0.608c0.009,0,1.778-8.384,1.94-9.102
					c0.517-2.298,1.21-4.987-0.028-7.16C416.989,56.605,416.452,56.53,416.658,56.911L416.658,56.911z"/>
			</g>
		</g>
		<g>
			<g>
				<path fill="#FFFFFF" d="M422.446,64.586c-0.566,1.779-2.64,12.826,2.874,11.061c4.846-1.552,6.497-12.076,7.791-16.289
					c0.109-0.356-0.668-0.735-0.828-0.389c-1.949,4.228-4.183,9.078-2.432,13.716c0.094,0.25,0.615,0.455,0.845,0.291
					c2.622-1.875,3.84-4.324,2.566-7.406c-0.129-0.312-0.646-0.437-0.906-0.244c-1.143,0.85-1.553,1.233-2.237,2.443
					c-0.18,0.318,0.543,0.556,0.744,0.498c1.145-0.331,2.231-0.694,3.338-1.144c2.893-1.177,4.715,0.392,6.432,2.624
					c0.149,0.194,0.744,0.439,0.879,0.1c0.63-1.592,1.318-2.917,2.296-4.364c0.966-1.43,7.714-4.539,4.763-1.9
					c-1.945,1.739-3.602,3.162-4.198,5.767c-0.093,0.404,0.557,0.568,0.836,0.467c2.777-1.003,3.96-3.575,5.4-5.979
					c-0.33-0.11-0.66-0.221-0.99-0.331c-0.461,1.794-0.446,3.269-0.436,5.145c0.002,0.343,0.671,0.516,0.909,0.363
					c3.001-1.929,4.761-6.721,6.56-0.343c0.091,0.322,0.756,0.615,1.001,0.296c2.753-3.566,6.936-5.451,10.19-8.481
					c-0.327-0.13-0.654-0.26-0.981-0.39c-0.579,6.354-1.541,13.127-5.224,18.505c-2.904,4.239-1.475-3.534-0.931-5.022
					c1.015-2.779,4.305-8.537,8.201-7.024c0.514,0.2,1.139-0.265,0.453-0.534c-6.893-2.71-12.871,9.897-10.064,15.153
					c0.132,0.247,0.661,0.457,0.906,0.261c6.012-4.817,7.026-13.857,7.684-21.025c0.039-0.432-0.695-0.657-0.982-0.39
					c-2.317,2.156-5.131,3.608-7.509,5.672c-0.26,0.227-1.855,2.089-2.113,1.633c-0.646-1.138-1.364-2.123-2.136-3.182
					c-0.181-0.249-0.682-0.326-0.91-0.118c-1.821,1.657-5.169,6.053-3.628-0.188c0.108-0.437-0.779-0.694-0.99-0.331
					c-0.688,1.22-1.42,2.412-2.199,3.577c-0.587,0.873-3.515,3.445-0.684-0.448c1.19-1.637,3.087-2.854,4.519-4.275
					c0.266-0.262-0.293-0.523-0.468-0.566c-2.444-0.606-4.102-0.163-6.113,1.309c-0.996,0.729-1.91,1.988-2.509,3.05
					c-1.396,2.48-1.12,2.668-3.116,0.593c-0.77-0.8-1.651-1.21-2.746-1.215c-0.439-0.002-0.952,0.227-1.354,0.372
					c-0.488,0.207-0.976,0.417-1.461,0.632c-2.335,1.02-0.179-1.841-0.734,2.265c-0.182,2.013-1.043,2.564-2.582,1.652
					c-0.109-1.295-0.005-2.579,0.312-3.852c0.393-2.159,1.332-4.245,2.193-6.248c-0.305-1.193-0.512-1.366-0.622-0.521
					c-0.119,0.438-0.242,0.876-0.369,1.312c-0.436,1.526-0.931,3.034-1.44,4.537c-0.947,2.796-2.031,5.626-3.715,8.068
					c-2.526,3.667-4.648-2.224-4.538-4.315c0.081-1.537,0.512-3.071,0.946-4.539C423.003,64.675,422.527,64.333,422.446,64.586
					L422.446,64.586z"/>
			</g>
		</g>
	</g>
	<g>
		<g>
			<g>
				<path fill="#FFFFFF" d="M373.26,120.576c-2.817-6.173-11.013,1.757-6.678,7.218c4.691,5.909,14.03-4.753,14.893-9.066
					c0.049-0.246-0.364-0.405-0.533-0.434c-4.093-0.71-6.134,3.29-4.799,6.862c0.086,0.229,0.516,0.464,0.749,0.326
					c1.188-0.702,2.177-1.457,3.231-2.36c2.85-2.439,4.36,0.969,5.218,3.204c0.088,0.231,0.616,0.521,0.824,0.28
					c1.186-1.368,2.298-2.79,3.517-4.13c-0.002,0.002,0.709,6.412,0.809,7.229c0.04,0.332,0.688,0.633,0.894,0.297
					c0.385-0.465,0.602-1,0.651-1.604c0.068-0.284-0.662-0.636-0.759-0.34c-0.692,2.114-0.142-1.254-0.152-1.632
					c-0.053-1.728-0.071-3.31-0.372-5.017c-0.052-0.293-0.569-0.604-0.829-0.366c-1.367,1.25-2.51,2.627-3.676,4.064
					c-0.239,0.296-2.346-3.839-2.744-4.503c-0.12-0.199-0.5-0.344-0.716-0.239c-0.8,0.387-6.12,4.303-6.277,2.759
					c-0.234-2.317,4.389-4.688,3.375-2.422c-0.518,1.156-1.408,2.226-2.206,3.173c-1.526,1.813-3.529,3.238-5.68,4.198
					c-6.923,3.088-6.803-3.918-5.568-6.368c0.926-1.838,4.64-4.803,6.388-1.091C372.932,120.855,373.427,120.941,373.26,120.576
					L373.26,120.576z"/>
			</g>
		</g>
		<g>
			<g>
				<path fill="#FFFFFF" d="M398.175,109.129c-0.813,5.802-1.486,11.701-1.698,17.558c-0.01,0.256,0.574,0.613,0.604,0.309
					c0.565-5.887,0.755-11.783,1.508-17.658C398.612,109.15,398.211,108.868,398.175,109.129L398.175,109.129z"/>
			</g>
		</g>
		<g>
			<g>
				<path fill="#FFFFFF" d="M394.472,121.826c3.191-1.631,6.782-2.077,10.131-3.279c0.265-0.095-0.199-0.567-0.445-0.479
					c-3.331,1.189-6.896,1.659-10.058,3.305C393.858,121.498,394.265,121.931,394.472,121.826L394.472,121.826z"/>
			</g>
		</g>
		<g>
			<g>
				<path fill="#FFFFFF" d="M399.32,123.293c3.621,0.036,6.605-1.816,7.186-5.515c0.041-0.26-0.357-0.499-0.577-0.399
					c-2.867,1.289-3.229,3.984-1.849,6.601c0.109,0.208,0.435,0.325,0.652,0.262c1.06-0.309,1.765-0.429,2.67-1.111
					c1.979-1.492,2.956-2.387,2.863,0.919c-0.009,0.325,0.708,0.634,0.875,0.304c2.804-5.558,2.574-3.156,5.788-0.591
					c0.862,0.688,1.876,0.727,2.901,0.607c4.653-0.544,6.604-9.595,7.298-13.001c0.079-0.389-0.68-0.723-0.89-0.371
					c-2.295,3.852-3.256,11.523,2.306,12.922c0.612,0.154,0.446-0.464-0.007-0.597c-3.758-1.096-3.3-5.736-2.776-8.54
					c0.144-0.649,0.337-1.283,0.58-1.902c0.687-1.969-0.503-0.051-0.681,0.668c-1.282,5.165-6.271,15.241-11.197,5.786
					c-0.113-0.219-0.592-0.53-0.821-0.282c-1.052,1.135-1.869,2.246-2.674,3.554c0.438,0.686,0.434,0.345-0.011-1.021
					c-0.086-0.446-0.18-0.892-0.279-1.335c-0.058-0.272-0.593-0.472-0.806-0.289c-1.287,1.106-5.831,6.155-5.841,0.926
					c0.485-2.636,1.044-3.371,1.675-2.203c-0.376,2.918-4.245,4.163-6.574,4.192C398.874,122.879,399.136,123.292,399.32,123.293
					L399.32,123.293z"/>
			</g>
		</g>
		<g>
			<g>
				<path fill="#FFFFFF" d="M423.385,117.352c2.65-0.219,5.302-0.479,7.929-0.9c0.335-0.054-0.082-0.549-0.326-0.511
					c-2.611,0.414-5.24,0.653-7.867,0.936C422.814,116.91,423.167,117.37,423.385,117.352L423.385,117.352z"/>
			</g>
		</g>
		<g>
			<g>
				<path fill="#FFFFFF" d="M397.494,127.108c0.94,6.957-1.293,13.976-1.221,20.957c0.004,0.435,1.138,0.603,1.13,0.064
					c0.041-0.667,0.083-1.333,0.124-2c0.058-0.395-0.817-0.757-0.936-0.354c-0.394,1.343-0.312,0.833-0.318,2.195
					c0.376,0.053,0.753,0.106,1.13,0.159c-0.3-4.086,0.383-8.228,0.77-12.29c0.255-2.671,0.867-6.13-0.284-8.68
					C397.82,127.01,397.453,126.81,397.494,127.108L397.494,127.108z"/>
			</g>
		</g>
		<g>
			<g>
				<path fill="#FFFFFF" d="M403.204,134.105c-0.938,3.663-0.174,7.08,2.334,9.917c0.127,0.143,0.434,0.302,0.616,0.166
					c4.729-3.543,5.439-10.678,6.237-16.105c0.05-0.338-0.787-0.628-0.926-0.283c-1.771,4.402-2.04,9.506,1.285,13.221
					c0.179,0.201,0.608,0.325,0.851,0.168c2.385-1.549,3.172-3.545,1.997-6.193c-0.131-0.294-0.656-0.4-0.917-0.255
					c-1.123,0.625-1.61,1.006-2.437,1.983c-0.294,0.347,0.46,0.579,0.673,0.577c1.134-0.013,1.898,0.079,2.95-0.476
					c0.873-0.411,1.701-0.898,2.484-1.461c1.301-0.846,3.406,3.892,3.763,4.583c0.155,0.302,0.835,0.503,1.013,0.13
					c1.819-3.803,4.027-6.808,8.462-7.5c-2.122,0.331-2.955,4.523-2.992,6.113c-0.009,0.35,0.701,0.509,0.932,0.354
					c2.194-1.482,3.291-3.319,4.176-5.791c-0.354-0.069-0.708-0.139-1.062-0.208c-0.016,1.722,0.413,2.911,0.936,4.543
					c0.099,0.306,0.671,0.573,0.953,0.344c1.379-1.12,0.882-0.606,2.021-2.084c1.477-1.917,0.824-2.097,0.938,0.525
					c0.019,0.42,0.805,0.495,1.044,0.273c1.198-1.113,2.395-2.228,3.606-3.327c2.395-2.171,2.699-0.627,3.561,1.608
					c0.118,0.305,0.809,0.447,1.015,0.178c1.517-1.982,2.582-4.066,3.614-6.324c-0.363-0.093-0.727-0.186-1.091-0.278
					c-0.211,5.695-1.544,11.57-3.715,16.828c-1.105,2.679-6.018,8.428-5.097,1.704c0.504-3.678,4.512-10.935,9.376-7.965
					c0.43,0.262,0.99-0.058,0.452-0.431c-6.672-4.63-12.765,7.221-10.479,12.695c0.102,0.243,0.494,0.321,0.72,0.307
					c7.944-0.505,9.621-17.105,9.833-22.859c0.018-0.467-0.892-0.715-1.091-0.278c-0.786,1.721-1.622,3.392-2.635,4.992
					c-0.563,0.889-1.614-1.903-1.861-2.544c-0.108-0.279-0.708-0.42-0.938-0.243c-1.354,1.046-2.633,2.137-3.902,3.288
					c-1.941,1.76-1.514,1.23-1.614-1.019c-0.017-0.357-0.849-0.581-1.038-0.276c-1.559,2.495-3.576,5.227-3.541,0.461
					c0.003-0.392-0.924-0.597-1.062-0.208c-0.164,0.46-0.328,0.92-0.492,1.381c-0.287,2.344-1.008,3.016-2.16,2.016
					c0.423-1.623,2.01-2.869,3.247-3.86c0.42-0.336-0.311-0.643-0.593-0.637c-5.446,0.101-8.319,3.231-10.56,7.916
					c0.338,0.043,0.676,0.087,1.013,0.13c-1.043-2.026-2.135-3.923-3.485-5.753c-0.153-0.208-0.612-0.324-0.837-0.177
					c-0.412,0.272-0.824,0.543-1.236,0.815c-0.802,0.776-1.765,1.112-2.889,1.007c0.112,0.792,0.225,1.583,0.337,2.375
					c-2.232,1.683-3.408,1.232-3.527-1.351c-0.569-1.944-0.248-4.457,0.116-6.296c0.188-0.949-0.097-2.801-0.374-0.62
					c-0.365,2.867-1.043,5.694-1.992,8.42c-0.396,1.136-0.971,2.169-1.587,3.196c-3.144,5.237-4.454-4.732-3.893-7.099
					C403.793,134.178,403.273,133.833,403.204,134.105L403.204,134.105z"/>
			</g>
		</g>
	</g>
	<g>
		<g>
			<g>
				<path fill="#FFFFFF" d="M370.486,189.482c-2.733-1.755-5.771-1.306-7.428,1.624c-0.044,0.076-0.028,0.17,0.025,0.239
					c4.568,5.914,8.844-10.109,8.801-13.028c-0.004-0.256-0.561-0.652-0.73-0.346c-2.113,3.809-3.917,11.331-0.717,14.957
					c4.309,4.883,8.807-3.637,8.685-7.296c-0.01-0.312-0.637-0.596-0.863-0.355c-1.997,2.117-2.502,4.746-1.002,7.294
					c0.133,0.225,0.651,0.529,0.882,0.256c1.129-1.339,2.018-3.604,1.136-5.292c-0.63-1.207-2.002-0.257-2.555,0.393
					c-0.273,0.321,0.482,0.749,0.733,0.507c1.978-1.903,0.534,3.073-0.161,3.901c0.294,0.086,0.588,0.171,0.882,0.256
					c-1.424-2.401-0.998-4.782,0.89-6.816c-0.288-0.118-0.575-0.236-0.863-0.355c0.108,2.369-0.815,4.687-2.275,6.523
					c-2.785,3.505-5.718,0.36-6.108-2.764c-0.432-3.465,0.433-7.718,2.048-10.799c-0.243-0.115-0.487-0.23-0.73-0.346
					c0.227,2.932-1.186,6.387-2.245,9.036c-0.59,1.473-1.321,2.914-2.341,4.136c-0.243,0.291-3.919,2.082-2.571-0.403
					c1.308-2.411,4.407-2.229,6.398-0.964C370.707,190.05,370.738,189.644,370.486,189.482L370.486,189.482z"/>
			</g>
		</g>
		<g>
			<g>
				<path fill="#FFFFFF" d="M384.007,185.595c-5.964,3.538,4.18,12.316,4.586,2.137c0.011-0.268-0.662-0.66-0.764-0.339
					c-0.335,1.057-1.238,3.557,0.676,3.682c0.997,0.065,1.911-0.72,2.661-1.265c0.741-0.539,1.385-1.219,2.022-1.871
					c1.351-1.38,0.304-1.467,0.332-1.547c-0.885,2.53-0.117,5.696,2.482,6.646c3.484,1.272,5.572-4.73,6.518-6.884
					c-0.332-0.109-0.664-0.22-0.996-0.329c-0.393,1.986-0.629,3.976-0.844,5.987c-0.039,0.372,0.761,0.745,0.971,0.396
					c0.834-1.396,1.033-1.742,1.813-3.158c1.806-3.279,1.033,1.5,1.196,3.146c0.038,0.387,0.809,0.598,1.002,0.245
					c0.707-1.464,1.65-2.742,2.828-3.836c1.472-1.552,2.55,4.092,2.484,3.871c0.094,0.314,1.025,0.5,0.931,0.112
					c-0.464-1.896-1.101-3.561-2.18-5.209c-0.183-0.281-0.643-0.465-0.932-0.23c-1.787,1.448-3.029,2.969-4.125,4.962
					c0.334,0.082,0.668,0.163,1.002,0.245c-0.201-2.078-0.34-4.161-0.541-6.239c-0.03-0.317-0.782-0.621-0.974-0.311
					c-1.199,1.947-2.263,3.964-3.433,5.932c0.323,0.132,0.646,0.264,0.97,0.396c0.209-2.009,0.439-3.996,0.826-5.979
					c0.083-0.425-0.82-0.73-0.996-0.329c-0.736,1.687-1.458,3.298-2.466,4.855c-1.133,1.907-2.737,1.506-4.812-1.204
					c-0.202-1.159,0.067-2.371,0.445-3.46c0.14-0.401-0.697-0.688-0.914-0.362c-0.648,0.973-5.996,7.03-5.975,3.027
					c-0.034,6.43-8.822,0.968-3.483-2.737C384.477,185.835,384.172,185.498,384.007,185.595L384.007,185.595z"/>
			</g>
		</g>
		<g>
			<g>
				<path fill="#FFFFFF" d="M412.561,189.775c2.076-1.412,3.128-2.866,2.534-5.415c-0.045-0.196-0.37-0.475-0.58-0.336
					c-2.328,1.536-3.039,4.209-0.565,5.98c0.455,0.326,1.285,0.53,1.835,0.417c3.104-0.638,2.554-3.323,3.155,1.785
					c0.035,0.292,0.618,0.649,0.819,0.323c-0.179,0.289,2.402-4,3.257-2.953c0.387,0.474,1.074,0.97,1.624,1.239
					c1.045,0.513,1.979,0.352,2.967-0.162c2.944-1.53,3.945-6.558,4.396-9.505c0.046-0.3-0.572-0.569-0.781-0.379
					c-3.675,3.344-2.69,11.661,3.411,10.04c0.406-0.108-0.196-0.631-0.481-0.567c-3.93,0.877-4.4-2.486-4.19-5.071
					c0.048-0.593,1.723-6.006,0.722-1.875c-0.858,3.54-3.708,10.164-7.811,5.141c-0.112-0.137-0.506-0.313-0.66-0.146
					c-2.372,2.58-2.838,4.44-3.073-0.229c-0.012-0.249-0.548-0.633-0.757-0.384c-0.866,1.034-5.293,5.128-5.312-0.603
					c0.065-1.48,0.606-1.772,1.622-0.876c-0.402,1.391-1.244,2.443-2.522,3.157C411.998,189.486,412.393,189.889,412.561,189.775
					L412.561,189.775z"/>
			</g>
		</g>
		<g>
			<g>
				<path fill="#FFFFFF" d="M427.476,184.922c2.055-0.468,4.143-0.766,6.186-1.28c0.33-0.083-0.079-0.562-0.314-0.504
					c-2.063,0.498-4.171,0.796-6.224,1.339C426.882,184.541,427.263,184.971,427.476,184.922L427.476,184.922z"/>
			</g>
		</g>
		<g>
			<g>
				<path fill="#FFFFFF" d="M385.302,198.358c-1.888,1.312-2.36,4.377-2.815,6.452c-0.709,3.235-0.937,6.583-1.199,9.877
					c-0.029,0.368,0.841,0.652,0.916,0.216c0.201-0.621,0.195-1.244-0.019-1.867c-0.039-0.239-0.719-0.565-0.722-0.219
					c0.056,0.608,0.002,1.206-0.162,1.793c0.301,0.098,0.602,0.195,0.902,0.293c0.22-5.597,0.602-11.31,3.275-16.315
					C385.522,198.505,385.402,198.288,385.302,198.358L385.302,198.358z"/>
			</g>
		</g>
		<g>
			<g>
				<path fill="#FFFFFF" d="M378.699,207.239c4.362-0.063,8.852,0.458,12.529-2.314c0.33-0.249-0.396-0.569-0.559-0.577
					c-4.248-0.188-5.577,6.792-1.756,8.178c3.755,1.36,6.562-5.26,8.008-7.738c-0.312-0.117-0.625-0.235-0.938-0.353
					c-1.003,2.546-1.429,4.907-1.56,7.623c-0.019,0.387,0.787,0.582,0.972,0.261c1.505-2.612,4.707-10.042,3.95-2.887
					c-0.036,0.338,0.761,0.58,0.95,0.321c0.851-1.165,1.75-2.264,2.68-3.366c0.808-0.957,3.014,4.349,3.177,4.692
					c0.162,0.342,1.155,0.481,0.938,0.003c-0.979-2.156-1.782-4.259-3.333-6.068c-0.159-0.186-0.673-0.399-0.869-0.147
					c-0.843,1.085-1.728,2.131-2.6,3.191c0.495-0.603,0.088-2.51,0.022-3.342c-0.027-0.344-0.718-0.582-0.948-0.322
					c-2.043,2.301-3.408,4.926-4.929,7.581c0.324,0.087,0.648,0.174,0.972,0.261c0.118-2.633,0.554-5.007,1.516-7.448
					c0.154-0.392-0.733-0.702-0.938-0.353c-0.809,1.382-5.351,10.05-7.46,6.616c-0.726-1.372-0.908-2.812-0.546-4.317
					c0.53-0.519,1.06-1.037,1.59-1.556c-1.058,0.64-2.19,1.049-3.399,1.227c-2.467,0.543-5.242,0.267-7.784,0.33
					C378.062,206.742,378.464,207.242,378.699,207.239L378.699,207.239z"/>
			</g>
		</g>
		<g>
			<g>
				<path fill="#FFFFFF" d="M412.453,205.81c-1.457,4.159-1.932,8.354-1.778,12.735c0.01,0.305,0.729,0.634,0.727,0.288
					c-0.014-2.267-0.073-4.518,0.128-6.778c0.116-1.299,0.476-2.543,0.954-3.749c1.715-4.321,3.235,0.142,0.894,1.634
					c-0.362,0.231,0.432,0.579,0.603,0.568c7.033-0.438,10.858-5.667,13.313-11.77c0.14-0.348-0.634-0.718-0.818-0.392
					c-1.708,3.026-5.525,15.105,1.943,12.646c0.441-0.146-0.279-0.682-0.596-0.586c-5.626,1.705-1.692-9.609-0.529-11.669
					c-0.273-0.131-0.546-0.261-0.818-0.392c-2.382,5.923-6.053,11.099-12.938,11.528c0.201,0.189,0.402,0.379,0.603,0.568
					c2.26-1.448,2.354-3.325,0.651-5.277c-0.143-0.163-0.482-0.281-0.674-0.139c-2.57,1.918-3.22,4.712-3.464,7.776
					c-0.079,1.002-0.05,2.016-0.038,3.019c0.008,0.318,0.016,0.638,0.022,0.956c-0.247,0.99-0.028,1.182,0.656,0.574
					c-0.28-3.854,0.456-7.599,1.609-11.238C412.968,205.911,412.536,205.574,412.453,205.81L412.453,205.81z"/>
			</g>
		</g>
		<g>
			<g>
				<path fill="#FFFFFF" d="M431.804,202.911c-1.504,0.9-2.509,2.299-3.073,3.939c0.209,0.102,0.418,0.204,0.627,0.306
					c0.41-1.338,1.105-2.449,1.738-3.677c-0.248-0.09-0.496-0.179-0.744-0.269c0.203,1.521,0.895,2.688,1.498,4.08
					c0.111,0.257,0.516,0.475,0.773,0.299c4.469-3.045,5.621-8.893,7.021-13.764c0.107-0.376-0.721-0.738-0.88-0.374
					c-1.284,2.94-4.372,10.177-1.505,13.022c0.188,0.187,0.952,0.309,0.672-0.139c-2.122-3.388,0.272-9.21,1.713-12.51
					c-0.293-0.125-0.587-0.249-0.88-0.374c-1.371,4.787-2.496,10.615-6.865,13.63c0.258,0.1,0.517,0.199,0.774,0.299
					c-0.593-1.33-1.318-2.592-1.565-4.04c-0.038-0.225-0.604-0.556-0.744-0.269c-0.612,1.26-1.307,2.409-1.633,3.778
					c-0.063,0.266,0.534,0.62,0.627,0.306c0.513-1.732,1.418-2.806,2.724-3.915C432.22,203.124,431.953,202.821,431.804,202.911
					L431.804,202.911z"/>
			</g>
		</g>
		<g>
			<g>
				<path fill="#FFFFFF" d="M434.497,202.912c3.386-0.059,6.817-1.854,8.078-5.12c0.089-0.231-0.383-0.511-0.567-0.399
					c-3.021,1.836-4.869,7.48,0.219,7.562c0.473,0.008-0.01-0.57-0.305-0.58c-4.271-0.143-1.435-5.189,0.587-6.489
					c-0.188-0.133-0.378-0.266-0.567-0.398c-1.101,3.153-4.519,4.876-7.703,4.954C433.942,202.448,434.281,202.916,434.497,202.912
					L434.497,202.912z"/>
			</g>
		</g>
		<g>
			<g>
				<path fill="#FFFFFF" d="M450.234,193.192c-0.555-0.421-0.712-0.514-1.389-0.639c-0.104-0.02-0.193,0.041-0.187,0.149
					c0.148,2.555,0.748,5.057,0.796,7.625c0.022,1.226-0.091,2.525-0.728,3.598c-0.998,1.681-3.26,0.795-4.652,0.255
					c-0.514-0.2-0.41,0.34-0.054,0.51c2.487,1.188,5.223,1.259,5.939-1.847c0.382-1.659,0.126-3.516-0.079-5.179
					c-0.115-0.936-0.266-1.866-0.406-2.798c-0.125-0.824-0.632-2.248,0.646-1.331C450.434,193.759,450.46,193.363,450.234,193.192
					L450.234,193.192z"/>
			</g>
		</g>
	</g>
	<g>
		<g>
			<g>
				<path fill="#FFFFFF" d="M269.739,280.695c0.064-4.325-7.397-4.257-9.807-2.372c-0.041,0.043-0.06,0.095-0.055,0.153
					c0.534,3.77,2.936,2.708,4.985,0.512c4.211-4.517,3.871-11.228,4.701-16.972c0.063-0.438-0.798-0.673-1.046-0.362
					c-3.369,4.227-5.91,11.873-3.486,17.022c0.987,2.097,3.147,3.278,5.353,2.8c2.839-0.617,4.001-4.717,4.407-7.093
					c0.069-0.408-0.669-0.568-0.939-0.445c-3.144,1.431-3.044,4.643-1.71,7.461c0.133,0.281,0.767,0.409,1,0.203
					c2.192-1.951,2.388-4.49,0.95-6.995c-0.155-0.27-0.599-0.357-0.873-0.268c-0.929,0.305-0.736,0.215-1.469,0.921
					c-0.041,0.053-0.054,0.112-0.041,0.179c0.15,0.474,0.301,0.947,0.452,1.421c0.091,0.285,0.978,0.538,0.91,0.125
					c0.898-1.112,1.177-0.738,0.835,1.123c0.022,0.854-0.407,1.411-1.287,1.671c-0.679-1.994-0.196-4.207,1.953-5.184
					c-0.313-0.148-0.626-0.297-0.939-0.445c-0.421,2.446-1.234,4.675-3.202,6.3c-3.032,2.504-4.704-2.516-5.023-4.065
					c-0.24-1.167-0.111-2.393-0.001-3.566c0.343-3.683,1.811-7.821,4.117-10.721c-0.349-0.12-0.698-0.241-1.046-0.361
					c-0.561,3.932-0.74,7.896-1.744,11.754c-0.511,1.964-1.525,3.53-2.833,5.039c-0.183,0.197-0.366,0.394-0.549,0.591
					c-1.216,1.567-1.607,1.169-1.173-1.195c2.022-1.028,6.567,0.054,7.143,2.613C269.35,280.676,269.735,280.965,269.739,280.695
					L269.739,280.695z"/>
			</g>
		</g>
		<g>
			<g>
				<path fill="#FFFFFF" d="M282.769,273.46c-1.587,1.945-2.772,4.956,0.095,6.283c3.278,1.519,5.188-3.934,5.721-5.956
					c0.079-0.299-0.591-0.597-0.768-0.338c-1.469,2.141-1.755,3.334-0.537,5.498c0.131,0.232,0.419,0.386,0.689,0.341
					c2.342-0.389,3.845-1.707,5.168-3.706c0.511-0.741,0.994-1.5,1.451-2.275c-0.544-0.133-0.827-0.033-0.85,0.3
					c-0.205,1.936-0.007,2.91,0.777,4.616c0.107,0.235,0.489,0.4,0.737,0.327c2.814-0.832,3.969-2.941,5.42-5.365
					c-0.326-0.112-0.652-0.225-0.979-0.336c-0.913,2.149-1.728,4.293-2.413,6.526c-0.12,0.389,0.724,0.686,0.948,0.403
					c2.318-2.917,4.002-7.135,4.586-0.892c0.033,0.354,0.771,0.579,0.995,0.3c0.839-1.048,1.765-1.901,2.744-2.816
					c0.239-0.225,1.171,1.434,1.4,1.744c0.801,1.085,2.104,1.646,3.358,1.966c3.181,0.809,5.044-2.303,5.738-4.868
					c0.104-0.384-0.563-0.544-0.818-0.483c-2.359,0.564-3.304,1.57-3.766,3.997c-0.046,0.242,0.228,0.409,0.426,0.465
					c1.943,0.549,3.015,0.506,4.961-0.176c2.393-0.838,2.962-3.443,3.604-0.727c0.248,1.047,1.242,2.008,2.383,1.819
					c4.975-0.821,9.926-10.036,10.714-14.524c0.064-0.368-0.601-0.651-0.876-0.458c-4.383,3.077-5.878,16.724,2.135,13.874
					c0.453-0.161-0.308-0.693-0.632-0.588c-5.431,1.77-4.303-6.38-3.507-8.912c0.438-1.393,1.551-2.349,1.8-3.757
					c-0.2,1.136-0.778,2.238-1.269,3.268c-1.295,2.723-3.057,5.255-5,7.551c-2.314,2.735-4.844,3.876-5.016-0.678
					c-0.016-0.406-0.74-0.505-0.988-0.304c-1.928,2.271-4.414,3.007-7.461,2.209c2.221-2.279,2.537-2.212,0.95,0.202
					c-2.345,3.554-6.362-0.223-7.312-2.881c-0.104-0.291-0.762-0.466-0.969-0.208c-0.838,1.047-1.762,1.9-2.741,2.815
					c0.012-0.011-0.944-3.445-0.932-3.383c-0.074-0.361-0.729-0.568-0.992-0.301c-1.621,1.652-2.988,3.453-4.421,5.269
					c0.316,0.134,0.633,0.269,0.948,0.403c0.676-2.234,1.488-4.373,2.4-6.521c0.169-0.399-0.767-0.691-0.979-0.336
					c-0.612,1.145-1.312,2.231-2.101,3.26c-3.282,0.263-4.073-1.02-2.374-3.847c0.133-0.401-0.72-0.701-0.927-0.357
					c-0.906,1.501-1.8,2.939-2.866,4.346c-1.95,2.571-3.393-2.969-4.388-0.239c-0.421,1.153-1.202,2.086-2.159,2.835
					c-2.68,0.111-3.702-0.762-3.066-2.62c0.303-0.891,0.768-1.682,1.394-2.374C283.354,273.66,282.92,273.275,282.769,273.46
					L282.769,273.46z"/>
			</g>
		</g>
		<g>
			<g>
				<path fill="#FFFFFF" d="M323.097,269.275c3.15,0.308,6.317,0.573,9.453,1.017c0.417,0.059,0.025-0.505-0.24-0.542
					c-3.1-0.44-6.23-0.691-9.352-0.934C322.609,268.789,322.874,269.253,323.097,269.275L323.097,269.275z"/>
			</g>
		</g>
		<g>
			<g>
				<path fill="#FFFFFF" d="M346.454,273.326c-1.821,0.553-2.193,4.508-2.494,5.918c-0.789,3.699-1.243,7.609-0.987,11.394
					c0.017,0.245,0.668,0.562,0.705,0.224c0.45-4.17,0.849-8.317,1.991-12.371c0.464-1.646,1.179-3.186,2.125-4.605
					c0.497-0.746,3.087-3.438,2.687-0.103c-0.26,2.16-2.795,3.646-4.487,4.511c-0.481,0.246,0.417,0.745,0.76,0.585
					c2.051-0.955,4.144-1.802,6.226-2.684c2.599-1.1,2.733-0.429,2.861,2.394c0.013,0.282,0.478,0.494,0.72,0.424
					c2.021-0.59,3.097-1.406,4.505-2.954c0.307-0.385,0.602-0.778,0.883-1.181c2.524-3.821,0.112,0.076,0.295-1.446
					c-0.334,2.784,0.307,4.594,2.666,6.083c0.165,0.104,0.454,0.19,0.622,0.043c4.062-3.544,5.604-8.906,6.624-14.027
					c0.076-0.379-0.709-0.744-0.888-0.371c-1.999,4.162-3.774,9.05-1.313,13.368c0.133,0.233,0.521,0.458,0.791,0.312
					c4.316-2.336,3.74-8.092-1.678-6.034c-0.416,0.158,0.182,0.571,0.381,0.597c0.696,0.091,0.599,0.087,1.328-0.081
					c0.375-0.086-0.139-0.582-0.395-0.54c2.617,1.312,3.079,2.755,1.388,4.326c-2.032,2.548-2.095-2.742-2.086-3.605
					c0.021-1.877,0.749-3.793,1.382-5.538c0.536-1.479,0.145-2.4-0.325-0.349c-0.511,2.23-1.301,4.366-2.238,6.448
					c-0.703,1.563-1.72,2.938-2.861,4.204c-0.785-0.453-1.571-0.907-2.356-1.361c-0.421-1.456-0.375-2.899,0.138-4.331
					c0.099-0.385-0.663-0.713-0.874-0.375c-1.498,2.398-6.715,9.571-6.294,2.254c0.019-0.329-0.6-0.511-0.833-0.39
					c-1.571,0.815-3.151,1.537-4.783,2.224c-1.058,0.427-2.111,0.865-3.159,1.315c0.317,0.994,0.837,0.958,1.557-0.107
					c2.104-1.481,2.818-3.686,2.294-6.084c-0.065-0.298-0.48-0.485-0.765-0.412c-6.231,1.602-6.798,10.853-7.337,16.039
					c-0.131,1.263,0.339,5.202,0.339,1.377c0-1.824,0.213-3.652,0.428-5.461c0.218-1.836,0.619-8.467,2.872-9.159
					C347.119,273.715,346.691,273.253,346.454,273.326L346.454,273.326z"/>
			</g>
		</g>
		<g>
			<g>
				<path fill="#FFFFFF" d="M377.416,263.982c-1.294,1.644-1.326,4.271-1.473,6.256c-0.171,2.299-0.123,4.723,0.467,6.963
					c0.061,0.23,0.58,0.55,0.749,0.268c0.957-1.601,1.675-3.283,2.344-5.021c-0.298-0.099-0.595-0.197-0.893-0.297
					c-0.013,3.089,0.975,5.812,3.998,6.974c0.463,0.179,0.521-0.341,0.132-0.512c-2.621-1.15-3.193-3.695-3.223-6.241
					c-0.004-0.314-0.761-0.656-0.894-0.297c-0.633,1.715-1.324,3.383-2.203,4.988c0.25,0.089,0.499,0.178,0.749,0.267
					c-0.96-3.421-1.382-9.712,0.67-12.958C377.965,264.173,377.562,263.795,377.416,263.982L377.416,263.982z"/>
			</g>
		</g>
		<g>
			<g>
				<path fill="#FFFFFF" d="M387.834,271.93c-1.497,0.572-1.278,1.971-1.137,3.372c0.131,1.296,1.421,3.542-0.709,4.024
					c-1.884,0.427-0.899-2.035-0.674-2.688c0.755-2.181,2.146-4.218,3.416-6.125c0.425-0.639,0.876-1.261,1.34-1.872
					c-0.394,0.519,1.324,7.554,1.473,8.663c0.038,0.284,0.503,0.43,0.723,0.313c2.591-1.367,3.615-1.544,4.783,1.11
					c0.096,0.216,0.488,0.472,0.729,0.331c1.385-0.808,2.377-2.138,3.442-0.591c0.557,0.809,1.513,1.177,2.396,1.467
					c2.651,0.87,3.895-1.633,3.485-3.808c-0.047-0.251-0.445-0.451-0.668-0.325c-1.634,0.923-2.477,1.695-2.949,3.526
					c-0.074,0.284,0.434,0.5,0.641,0.398c0.424-0.207,3.51-2.062,3.901-0.396c0.371,1.584,0.279,3.277,0.176,4.882
					c-0.104,1.617-0.512,3.18-1.192,4.648c-0.459,0.847-1.119,1.519-1.981,2.017c-4.268-0.768-5.676-2.681-4.225-5.737
					c0.083-0.265-0.598-0.622-0.691-0.353c-0.899,2.565,0.082,9.101,4.444,7.086c4.902-2.266,5.271-9.273,3.691-13.858
					c-0.054-0.156-0.331-0.35-0.502-0.288c-1.015,0.364-2.187,0.536-3.155,0.999c0.119-0.872,0.619-1.5,1.499-1.883
					c0.76,2.866-0.893,2.849-4.957-0.054c-0.109-0.268-0.55-0.472-0.803-0.289c-2.393,1.727-2.632,2.222-3.869-0.575
					c-0.098-0.221-0.479-0.465-0.725-0.333c-1.137,0.611-3.399,1.943-3.64,0.274c-0.389-2.69-0.744-5.177-1.81-7.688
					c-0.075-0.177-0.449-0.431-0.613-0.224c-1.492,1.895-9.64,14.21-1.823,11.409c0.051-0.018,0.077-0.085,0.069-0.134
					c-0.245-1.449-1.957-6.011,0.15-6.924C388.263,272.225,387.997,271.868,387.834,271.93L387.834,271.93z"/>
			</g>
		</g>
	</g>
	<g>
		<g>
			<path fill="#F9EC31" d="M669.75,134.89c0.477,0,0.059-0.608-0.249-0.608C669.025,134.282,669.443,134.89,669.75,134.89
				L669.75,134.89z"/>
		</g>
	</g>
	<g>
		<g>
			<g>
				<path fill="#FFFFFF" d="M93.708,262.725c0.197,2.73,0.067,5.458-0.068,8.189c-0.007,0.145,0.346,0.467,0.403,0.251
					c0.95-3.578,0.722-10.962,5.618-11.554c0.343-0.041-0.094-0.532-0.333-0.514c-3.151,0.247-4.121,3.646-4.721,6.248
					c-0.363,1.577-0.56,3.189-0.829,4.784c-0.184,0.443-0.093,0.511,0.272,0.203c-0.001-0.817,0.024-1.634,0.042-2.451
					c0.035-1.687,0.002-3.365-0.14-5.047C93.942,262.714,93.694,262.532,93.708,262.725L93.708,262.725z"/>
			</g>
		</g>
		<g>
			<g>
				<path fill="#FFFFFF" d="M97.855,266.583c2.815-0.222,4.302-2.326,3.943-5.068c-0.021-0.164-0.345-0.504-0.473-0.258
					c-0.818,1.574-1.609,3.441,0.467,4.148c3.017,1.029,5.328-4.354,6.757-6.032c-0.25-0.114-0.5-0.229-0.75-0.342
					c-0.599,4.737-0.859,9.478-0.892,14.251c-0.003,0.367,0.853,0.657,0.915,0.216c0.428-3.027,0.394-6.088,1.022-9.093
					c0.341-1.63,0.981-3.164,2.09-4.418c0.654-0.739,1.71-1.78,1.969-0.343c0.332,1.841-1.629,3.994-3.538,3.46
					c-0.601-0.168-0.811,0.397-0.201,0.589c3.265,1.026,5.651-2.406,4.376-5.358c-0.117-0.272-0.566-0.36-0.82-0.295
					c-6.159,1.603-5.395,10.307-5.812,15.242c0.305,0.072,0.61,0.145,0.915,0.216c-0.06-4.746,0.198-9.477,0.747-14.19
					c0.036-0.312-0.547-0.585-0.75-0.342c-1.443,1.728-2.402,3.793-4.096,5.317c-0.812,0.764-1.709,0.542-2.691-0.667
					c0.047-0.468,0.284-0.943,0.464-1.371c0.505-1.2,0.333-0.467-0.52,2.2c-0.59,1.279-1.998,1.726-3.256,1.851
					C97.578,266.31,97.73,266.593,97.855,266.583L97.855,266.583z"/>
			</g>
		</g>
		<g>
			<g>
				<path fill="#FFFFFF" d="M119.388,257.775c-1.973,1.407-2.323,3.382-1.414,5.555c0.063,0.151,0.297,0.342,0.475,0.29
					c4.956-1.465,2.891-8.822-2.212-6.589c-0.406,0.178,0.196,0.623,0.449,0.593c1.583-0.194,3.132-0.509,4.694-0.832
					c3.918-0.811,5.15,1.864,6.06,5.214c0.066,0.245,0.717,0.587,0.781,0.195c0.646-3.959,1.649-10.701,7.394-8.718
					c0.416,0.145,0.256-0.384-0.008-0.494c-5.994-2.502-7.46,4.441-8.175,8.942c0.26,0.065,0.521,0.131,0.781,0.195
					c-0.69-2.499-1.729-6.314-5.016-6.21c-2.021,0.063-4.005,0.677-5.994,0.987c0.689,0.959,1.733,1.398,3.133,1.318
					c0.566,0.916,0.362,2.152,0.01,3.085c-0.246,0.526-0.612,0.958-1.099,1.297c-0.367-0.755-0.734-1.51-1.101-2.264
					c0.292-0.943,0.834-1.673,1.626-2.189C119.94,258.013,119.568,257.646,119.388,257.775L119.388,257.775z"/>
			</g>
		</g>
		<g>
			<g>
				<path fill="#FFFFFF" d="M136.572,246.325c-0.447,3.467-0.52,7.02-0.784,10.506c-0.022,0.292,0.637,0.613,0.654,0.303
					c0.197-3.501,0.65-7.096,0.53-10.601C136.968,246.368,136.606,246.056,136.572,246.325L136.572,246.325z"/>
			</g>
		</g>
		<g>
			<g>
				<path fill="#FFFFFF" d="M131.322,254.768c2.658-3.293,9.323-4.142,9.814,1.812c0.017,0.206,0.494,0.508,0.667,0.326
					c1.773-1.862,3.348-4.69,4.117-0.398c0.06,0.333,0.583,0.566,0.862,0.355c0.439-0.331,4.356-3.606,4.743-2.873
					c0.382,0.727,0.994,1.181,1.596,1.696c0.776,0.666,2.024,0.985,3.023,0.979c3.243-0.022,3.899-2.957,3.271-5.546
					c-0.074-0.304-0.588-0.435-0.823-0.281c-2.305,1.502-2.826,2.93-1.484,5.243c0.121,0.209,0.486,0.331,0.708,0.242
					c1.116-0.445,3.867-1.489,3.839-2.901c0.05,2.514-0.167,5.017-0.558,7.498c-0.384,2.435-1.204,4.736-2.652,6.744
					c-2.414,3.347-7.726,3.76-8.98-1.191c-0.083-0.325-0.925-0.555-0.824-0.09c0.961,4.445,3.972,6.201,8.095,3.991
					c5.885-3.154,6.001-12.036,5.808-17.771c-0.01-0.293-0.636-0.616-0.849-0.36c-0.303,0.365-0.606,0.73-0.91,1.097
					c-1.138,1.76-2.014,1.356-2.627-1.21c0.161,0.622,0.322,1.244,0.483,1.866c-1.622,2.95-3.871,2.588-6.747-1.086
					c-0.13-0.243-0.572-0.455-0.833-0.295c-1.404,0.855-2.619,1.78-3.89,2.835c-0.882,0.732-1.526-1.979-1.734-2.401
					c-0.096-0.195-0.572-0.548-0.782-0.297c-0.844,1.013-1.747,1.901-2.7,2.81c-0.217,0.206-0.853-1.376-1.055-1.718
					c-0.505-0.854-1.465-1.32-2.315-1.729c-2.69-1.295-5.908,0.175-7.529,2.366C130.969,254.593,131.231,254.881,131.322,254.768
					L131.322,254.768z"/>
			</g>
		</g>
		<g>
			<g>
				<path fill="#FFFFFF" d="M102.368,277.676c-1.094,1.494-0.842,4.749-0.976,6.487c-0.218,2.83-0.854,6.619,0.069,9.37
					c0.062,0.185,0.717,0.587,0.701,0.225c-0.126-2.878-0.292-5.683-0.166-8.576c0.079-1.819-0.276-5.519,0.775-7.123
					C102.897,277.867,102.5,277.496,102.368,277.676L102.368,277.676z"/>
			</g>
		</g>
		<g>
			<g>
				<path fill="#FFFFFF" d="M101.634,283.628c1.896,0.305,3.771,0.326,5.687,0.269c-0.145,0.005,1.738,5.322,2.279,5.992
					c0.129,0.159,0.548,0.331,0.689,0.099c1.865-3.078,0.044-7.883,4.13-8.363c0.38-0.045,3.637-1.044,3.205-0.074
					c-0.748,1.68-0.683,2.987-0.223,4.704c0.068,0.252,0.666,0.506,0.856,0.268c2.024-2.529,2.154-4.796,0.182-7.347
					c-0.127-0.165-0.961-0.465-0.886-0.022c1.377,8.173,9.442-1.985,10.318-5.58c0.097-0.398-0.81-0.74-0.908-0.364
					c-1.201,4.606-1.983,9.673,0.609,13.936c0.145,0.237,0.997,0.403,0.801-0.004c-1.286-2.669-1.625-5.128-1.505-8.035
					c0.033-0.808,1.181-7.729-0.693-3.745c-0.824,1.751-2.131,3.269-3.481,4.633c-0.584,0.571-1.238,1.049-1.963,1.433
					c-0.641,0.796-1.282,1.592-1.923,2.388c-0.541-1.183-0.445-2.292,0.289-3.327c0.142-0.339-0.469-0.563-0.709-0.487
					c-2.51,0.796-5.027,1.091-7.641,1.349c-0.156,0.016-0.242,0.117-0.206,0.271c0.399,1.312,0.548,2.645,0.448,3.997
					c-0.065,6.077-2.45,0.258-2.079-1.879c0.035-0.205-0.254-0.433-0.442-0.425c-2.333,0.1-4.654,0.198-6.973-0.142
					C101.151,283.12,101.416,283.593,101.634,283.628L101.634,283.628z"/>
			</g>
		</g>
		<g>
			<g>
				<path fill="#FFFFFF" d="M137.584,274.409c-3.405-0.403-4.808,1.02-4.12,4.341c0.358,1.729,1.046,3.398,1.197,5.168
					c0.212,2.483-1.959,2.574-3.898,2.334c-0.522-0.064-0.203,0.498,0.128,0.56c3.349,0.621,5.029-0.663,4.303-4.043
					c-0.731-3.401-3.206-8.485,2.599-7.839C138.196,274.974,137.839,274.439,137.584,274.409L137.584,274.409z"/>
			</g>
		</g>
	</g>
	<g>
		<g>
			<g>
				<path fill="#FFFFFF" d="M58.574,179.546c2.207,0.333,4.416,0.339,6.613-0.068c0.321-0.06-0.064-0.541-0.297-0.495
					c-2.16,0.426-4.321,0.428-6.5,0.15C58.146,179.103,58.4,179.52,58.574,179.546L58.574,179.546z"/>
			</g>
		</g>
		<g>
			<g>
				<path fill="#FFFFFF" d="M54.831,175.019c0.443,0,0.024-0.555-0.261-0.555C54.126,174.464,54.546,175.019,54.831,175.019
					L54.831,175.019z"/>
			</g>
		</g>
		<g>
			<g>
				<path fill="#FFFFFF" d="M17.277,193.289c0.742-0.938,0.865-0.769,0.528-1.828c-0.053-0.167-0.245-0.29-0.415-0.287
					c-3.412,0.057-5.329,2.365-5.051,5.743c0.022,0.269,0.413,0.488,0.663,0.433c3.289-0.738,4.561-4.055,5.943-6.814
					c-0.323-0.088-0.646-0.176-0.969-0.263c0.425,2.072,1.251,3.306,2.628,4.929c0.178,0.21,0.551,0.319,0.805,0.196
					c2.343-1.139,3.387-2.86,4.562-5.127c-0.33-0.084-0.66-0.167-0.99-0.251c0.226,1.781,0.985,2.447,1.829,4.063
					c0.145,0.277,0.565,0.412,0.848,0.289c1.458-0.636,2.453-1.313,3.612-2.358c1.73-1.559,1.02-1.572,2.386,0.078
					c1.032,1.248,2.733,1.803,4.259,2.072c3.777,0.669,6.513-2.02,5.118-5.614c-0.072-0.186-0.334-0.321-0.525-0.287
					c-2.542,0.451-3.825,1.863-3.098,4.465c0.069,0.245,0.487,0.477,0.716,0.315c4.986-3.503,6.91-10.188,8.123-15.866
					c0.079-0.37-0.63-0.722-0.844-0.385c-2.828,4.45-3.756,9.483-1.052,14.21c0.152,0.266,0.544,0.424,0.833,0.296
					c2.302-1.016,3.517-2.479,4.729-4.67c-0.327-0.111-0.654-0.224-0.98-0.336c-1.703,3.648,2.451,5.911,5.436,3.586
					c4.619-3.598,6.009-10.872,6.737-16.354c0.041-0.308-0.699-0.603-0.879-0.351c-2.914,4.067-3.714,9.118-1.944,13.822
					c1.087,2.892,3.757,1.001,4.829-0.867c0.185-0.323-0.639-0.713-0.841-0.385c-2.445,2.19-3.701,1.846-3.768-1.036
					c-0.509-2.051-0.12-4.589,0.324-6.516c0.287-1.246,0.943-2.276,1.146-3.548c-0.147,0.92-0.352,1.83-0.553,2.739
					c-0.485,2.19-1.183,4.319-2.011,6.401c-0.52,1.308-1.215,2.52-2.001,3.687c-0.201,0.25-0.402,0.5-0.603,0.749
					c-1.287,1.709-2.917,1.179-4.89-1.593c0.178-0.381-0.774-0.708-0.98-0.336c-1.586,2.866-4.162,5.495-5.206,0.702
					c-0.64-2.937,0.476-5.984,1.753-8.581c-1.159,2.356-1.919,5.16-3.038,7.682c-0.518,1.169-1.187,2.247-1.877,3.317
					c-0.635,0.943-1.384,1.778-2.247,2.507c-0.66-2.202,0.186-2.567,2.538-1.094c-0.048,1.164-1.218,1.916-2.102,2.354
					c-3.081,1.525-6.544-0.718-7.636-3.638c-0.095-0.254-0.708-0.506-0.906-0.243c-1.786,2.367-5.502,6.84-6.232,0.889
					c-0.045-0.37-0.8-0.614-0.99-0.251c-1.674,3.206-4.678,6.909-6.035,0.517c-0.071-0.335-0.779-0.648-0.969-0.263
					c-0.877,1.781-1.715,3.477-2.935,5.067c-2.268,1.29-2.682,0.752-1.241-1.614c3.324-1.989,4.345-2.235,3.063-0.736
					C16.736,193.091,17.139,193.464,17.277,193.289L17.277,193.289z"/>
			</g>
		</g>
		<g>
			<g>
				<path fill="#FFFFFF" d="M79.999,171.557c-1.297,5.078-1.008,10.364-1.085,15.562c-0.005,0.335,0.792,0.651,0.807,0.264
					c0.214-5.226-0.333-10.39,0.947-15.526C80.737,171.577,80.083,171.225,79.999,171.557L79.999,171.557z"/>
			</g>
		</g>
		<g>
			<g>
				<path fill="#FFFFFF" d="M73.435,176.786c4.158-0.271,8.243,0.093,12.371,0.543c1.683,0.184,0.47,6.918,0.488,7.911
					c0.007,0.402,1.004,0.64,1.015,0.156c0.08-3.692,1.193-6.48,4.407-8.459c1.518-0.935,3.503-1.209,5.225-1.387
					c1.658-0.172-1.246,3.188-1.598,3.807c-0.27,0.473,0.689,0.715,0.982,0.452c0.576-0.517,2.093-1.733,2.079-2.413
					c0.037,1.777,0.635,3.06,1.483,4.539c0.149,0.26,0.659,0.438,0.921,0.252c2.084-1.478,3.254-3.354,4.413-5.598
					c-0.352-0.07-0.703-0.141-1.055-0.212c-0.176,3.839,2.496,5.134,5.995,4.368c4.129-0.903,5.247-9.246,5.765-12.46
					c0.069-0.431-0.826-0.73-1.007-0.323c-2.201,4.949-1.296,14.097,5.977,11.466c0.474-0.172-0.374-0.712-0.723-0.588
					c-6.888,2.43-5.513-7.689-4.247-10.555c-0.336-0.108-0.671-0.216-1.007-0.323c-0.31,1.93-0.751,3.815-1.301,5.69
					c-0.323,1.101-0.77,2.147-1.24,3.19c-1.427,3.166-7.37,4.166-7.152-0.343c0.021-0.418-0.878-0.553-1.055-0.212
					c-0.574,1.271-1.287,2.456-2.139,3.554c-0.787-0.258-1.574-0.516-2.361-0.772c-0.185-1.066-0.261-2.141-0.227-3.223
					c-0.007-0.351-0.847-0.587-1.029-0.281c-0.901,1.512-1.763,2.617-3.074,3.791c0.327,0.15,0.655,0.302,0.982,0.452
					c0.952-1.669,2.011-3.053,3.382-4.399c0.276-0.271-0.362-0.569-0.548-0.573c-3.643-0.085-7.069,0.405-9.995,2.729
					c-1.536,1.22-2.239,3.078-2.689,4.911c-1.705,6.946,0.641-2.579,0.777,1.297c-0.076-2.152,0.258-4.302,0.639-6.41
					c0.043-0.236-0.359-0.419-0.534-0.434c-4.753-0.399-9.44-0.966-14.214-0.637C72.828,176.316,73.204,176.8,73.435,176.786
					L73.435,176.786z"/>
			</g>
		</g>
		<g>
			<g>
				<path fill="#FFFFFF" d="M34.342,209.445c0.022-1.28,0.134-0.779-0.579-1.964c-0.064-0.106-0.241-0.261-0.381-0.223
					c-2.58,0.696-3.914,1.71-3.165,4.441c0.07,0.257,0.422,0.401,0.663,0.347c2.046-0.466,3.156-1.605,4.478-3.204
					c0.741-0.896,1.408-1.855,2.143-2.759c-0.027,0.034,0.688,4.29,0.718,4.714c0.025,0.35,0.759,0.626,0.941,0.275
					c0.23-0.442,2.89-5.006,3.305-4.519c0.573,0.674,1.287,1.239,1.969,1.792c1.207,0.976,2.718,1.866,4.232,2.246
					c4.101,1.031,5.85-1.315,6.278-5.242c0.027-0.253-0.303-0.413-0.506-0.434c-2.592-0.264-4.63,0.585-4.242,3.485
					c0.038,0.282,0.405,0.512,0.681,0.421c4.838-1.583,6.186-7.378,7.235-11.791c0.086-0.359-0.662-0.738-0.841-0.385
					c-2.5,4.946-0.904,10.146,4.191,12.362c0.516,0.224,0.746-0.272,0.231-0.505c-3.239-1.462-4.484-3.642-4.792-6.885
					c0.018-0.396,0.035-0.791,0.053-1.187c1.061-1.242,1.081-2.146,0.061-2.709c-0.588,2.479-1.428,4.843-2.632,7.089
					c-0.458,0.614-0.916,1.229-1.374,1.844c-1.418,1.147-1.055,1.045,1.088-0.308c-0.258,2.504-1.966,4.173-4.696,3.799
					c-2.55-0.349-5.001-2.473-6.599-4.347c-0.192-0.226-0.609-0.354-0.858-0.154c-1.404,1.123-2.273,2.408-3.141,3.952
					c0.559-0.994-0.209-3.205-0.549-4.476c-0.069-0.257-0.624-0.494-0.831-0.278c-1.321,1.385-2.345,2.915-3.567,4.412
					c-0.688,0.837-1.525,1.493-2.515,1.97c-0.552-2.795,0.308-3.458,2.579-1.991C33.93,209.416,34.337,209.713,34.342,209.445
					L34.342,209.445z"/>
			</g>
		</g>
		<g>
			<g>
				<path fill="#FFFFFF" d="M74.303,198.226c-2.893,0.009-4.396,2.013-4.556,4.814c-0.018,0.304,0.511,0.551,0.746,0.386
					c1.693-1.184,2.746-2.5,3.896-4.179c-0.72,1.051,0.886,2.957,1.607,3.736c0.162,0.176,0.628,0.412,0.836,0.168
					c0.911-1.072,1.545-2.097,2.191-3.362c0.665-1.302,0.009-2.502,1.114-1.195c0.155,0.184,0.542,0.356,0.773,0.213
					c3.035-1.879,5.714-4.248,8.958-5.776c0.288-0.136-0.272-0.632-0.511-0.531c-4.668,1.956-2.665,9.632,1.453,6.878
					c2.613-1.748,3.518-6.645,4.242-9.439c0.129-0.5,0.241-1.01,0.355-1.514c0.262-1.161-0.575-1.652-0.663-0.104
					c-0.216,3.805-0.367,7.509,0.413,11.261c0.066,0.319,0.634,0.597,0.899,0.343c1.806-1.729,2.792-3.682,5.282-2.282
					c0.995,0.56,1.86,0.938,2.976,1.172c2.518,0.526,4.108-2.297,5.104-4.063c-0.328-0.085-0.655-0.17-0.983-0.255
					c-0.045,1.893,0.391,3.09,1.063,4.818c0.109,0.279,0.681,0.476,0.909,0.242c1.134-1.167,4.345-4.194,4.32-6.048
					c0.029,2.175,1.233,4.076,2.592,5.653c0.158,0.184,0.83,0.434,0.933,0.059c0.505-1.853,0.869-3.72,1.505-5.536
					c0.615-1.755,5.012-2.663,6.699-3.888c0.464-0.337-0.425-0.721-0.73-0.617c-5.643,1.919-3.167,9.275,2.493,8.135
					c0.578-0.117-0.129-0.705-0.491-0.644c-8.375,1.433-0.574-6.88-5.438-6.152c-0.595,0.089-1.97,0.28-2.393,0.862
					c-0.982,1.347-1.469,2.715-1.899,4.333c-0.171,0.749-0.34,1.498-0.508,2.248c-0.332-0.456-0.664-0.912-0.996-1.368
					c-0.629-1.44-0.896-2.933-0.802-4.475c-0.006-0.311-0.745-0.621-0.93-0.33c-1.623,2.558-5.521,10.357-5.334,2.878
					c0.01-0.389-0.797-0.582-0.982-0.255c-1.934,3.422-5.305,3.832-8.641,1.314c-0.195-0.147-0.569-0.273-0.775-0.075
					c-2.675,2.581-3.273,3.737-3.556-0.579c-0.176-2.679,0.101-5.404,0.215-8.08c0.015-0.346-0.79-0.661-0.855-0.245
					c-0.482,3.061-1.407,6.097-2.62,8.942c-0.236,0.532-0.502,1.049-0.796,1.551c-0.144,0.222-0.287,0.442-0.43,0.663
					c-1.358,2.137-2.485,1.188-3.38-2.848c1.892-5.33-6.288,4.216-7.499,2.236c-0.151-0.247-0.764-0.557-0.945-0.177
					c-0.375,0.772-0.741,1.549-1.098,2.33c-1.159,2.495-2.926,0.493-2.846-1.472c0.015-0.366-0.706-0.589-0.904-0.293
					c-0.994,1.56-2.11,3.03-3.348,4.412c0.25-2.37,1.461-3.493,3.633-3.371C74.917,198.714,74.531,198.225,74.303,198.226
					L74.303,198.226z"/>
			</g>
		</g>
	</g>
	<g>
		<g>
			<g>
				<path fill="#FFFFFF" d="M17.744,97.189c-3.067-0.899-6.08-0.015-8.407,2.139c-0.095,0.088-0.08,0.207,0.001,0.304
					c1.274,1.544,2.771,2.88,4.034,4.435c1.313,1.346,1.345,2.766,0.094,4.26c-0.204,0.462-0.209,0.292-0.019-0.511
					c0.144-1.073,0.68-2.095,1.155-3.049c2.636-5.301,7.485-9.174,10.23-14.418c-0.283-0.128-0.566-0.255-0.849-0.383
					c-0.973,3.358-3.297,13.839,2.163,14.57c0.557,0.074,0.17-0.498-0.149-0.578c-4.07-1.015-1.897-11.036-1.165-13.609
					c0.104-0.365-0.673-0.733-0.849-0.383c-3.031,6.045-11.581,11.747-11.441,19.047c0.006,0.297,0.484,0.556,0.734,0.388
					c1.961-1.319,2.327-2.647,1.188-4.725c-0.726-1.325-1.996-2.421-3.047-3.479c-3.302-3.321,4.779-4.015,6.354-3.567
					C18.159,97.741,17.999,97.264,17.744,97.189L17.744,97.189z"/>
			</g>
		</g>
		<g>
			<g>
				<path fill="#FFFFFF" d="M19.416,97.661c2.14-0.519,4.395-1.072,6.545-0.316c2.314,0.814,3.604,3.95,4.592,5.963
					c0.07,0.143,0.474,0.48,0.57,0.186c1.159-3.567,1.898-7.116,4.631-9.861c0.197-0.198-0.396-0.634-0.596-0.458
					c-1.969,1.736-2.893,4.029-3.652,6.492c-0.277,0.899-0.337,3.793-1.268,2.035c-0.473-0.893-1.013-1.735-1.6-2.554
					c-2.368-3.302-5.996-2.768-9.491-1.887C18.939,97.313,19.229,97.707,19.416,97.661L19.416,97.661z"/>
			</g>
		</g>
		<g>
			<g>
				<path fill="#FFFFFF" d="M34.274,101.03c2.658-1.726,4.795-3.589,5.677-6.697c0.061-0.214-0.285-0.474-0.477-0.39
					c-4.556,2.002-2.545,5.225,1.449,6.217c5.057,1.257,8.287-1.143,5.814-6.221c-0.086-0.177-0.383-0.349-0.581-0.279
					c-2.08,0.736-2.675,1.29-2.41,3.585c0.036,0.309,0.467,0.544,0.743,0.387c3.07-1.755,3.07-4.366,5.029-0.249
					c0.096,0.201,0.606,0.549,0.809,0.287c1.8-2.323,2.109-2.148,3.105,1.07c0.083,0.266,0.708,0.54,0.87,0.218
					c1.964-3.909,3.173-2.537,5.357,0.119c0.132,0.161,0.463,0.287,0.649,0.151c1.49-1.082,0.929-0.474,1.88-2.12
					c0.16-0.277-0.479-0.681-0.655-0.414c-1.886,2.859-3.439-0.134-4.575-1.539c-0.12-0.149-0.576-0.443-0.755-0.209
					c-2.215,2.891-2.033,3.652-3.76,0.128c-0.105-0.214-0.613-0.537-0.828-0.28c-1.85,2.22-1.735,2.056-3.113-1.058
					c-0.111-0.252-0.625-0.543-0.829-0.237c-0.545,0.692-1.09,1.384-1.636,2.077c-1.618,1.41-1.472,1.142,0.438-0.803
					c0.605,1.211,0.86,2.59,0.237,3.823c-0.807,1.597-3.357,1.436-4.806,1.238c-1.772-0.242-5.93-1.776-4.136-4.084
					c1.606-2.068,1.511-0.399,0.09,1.62c-0.971,1.38-2.523,2.388-3.9,3.31C33.807,100.785,34.109,101.138,34.274,101.03
					L34.274,101.03z"/>
			</g>
		</g>
		<g>
			<g>
				<path fill="#FFFFFF" d="M60.304,84.864c-0.087,3.545-0.096,9.678,3.54,11.813c1.614,0.948,1.839,0.595,3.418-0.858
					c0.897-0.825,1.211-2.174,1.496-3.292c0.099-0.34-0.194-0.368-0.877-0.084c0.091,1.028,0.232,2.049,0.424,3.063
					c0.053,0.327,0.598,0.577,0.868,0.354c1.077-0.893,2.315-1.55,3.419-2.407c0.536-0.417,2.034,2.508,2.371,2.952
					c0.431,0.568,1.58,1.396,2.346,1.324c3.786-0.354,6.285-5.534,6.134-8.983c-0.011-0.257-0.434-0.546-0.679-0.421
					c-5.753,2.93-0.18,7.998,4.487,6.205c0.426-0.164-0.256-0.699-0.565-0.583c-1.895-0.841-3.791-1.683-5.686-2.524
					c1.383-2.695,1.902-3.202,1.56-1.523c-0.172,1.337-0.875,2.643-1.487,3.822c-0.943,1.814-3.48,5.089-6.025,1.699
					c-0.701-0.934-1.199-2.087-1.816-3.081c-0.111-0.179-0.604-0.418-0.779-0.199c-2.66,3.33-3.919,3.23-3.553-0.847
					c0.032-0.357-0.838-0.658-0.879-0.234c-0.021,1.184-0.302,2.291-0.842,3.323c-1.795,4.219-4.952-0.227-5.681-2.562
					c-0.67-2.147-0.668-4.533-0.637-6.759C60.862,84.822,60.312,84.528,60.304,84.864L60.304,84.864z"/>
			</g>
		</g>
		<g>
			<g>
				<path fill="#FFFFFF" d="M71.24,80.455c-0.315-0.009-0.632-0.029-0.948-0.019c0.09,0.187,0.18,0.374,0.27,0.561
					c0.086-0.003,0.172-0.006,0.259-0.009c0.347-0.012-0.097-0.511-0.294-0.53c-0.078-0.007-0.156-0.015-0.234-0.021
					c-0.441-0.039-0.012,0.536,0.27,0.561c0.332,0.029,0.667,0.033,1,0.046C72.036,81.062,71.548,80.463,71.24,80.455L71.24,80.455z
					"/>
			</g>
		</g>
		<g>
			<g>
				<path fill="#FFFFFF" d="M35.503,113.57c-2.789-1.767-4.799,1.394-2.992,3.812c0.122,0.163,0.357,0.27,0.551,0.188
					c1.931-0.821,2.757-2.248,3.15-4.285c-0.261-0.091-0.522-0.181-0.784-0.272c0.008,1.601,0.803,2.738,1.2,4.259
					c0.079,0.301,0.654,0.498,0.85,0.228c0.861-1.185,1.959-1.935,2.563-3.274c-0.297-0.1-0.593-0.199-0.89-0.298
					c0.42,5.047,0.36,10.071-0.077,15.115c0.32,0.064,0.641,0.127,0.961,0.191c-0.087-5.923,0.188-11.956,3.189-17.214
					c-0.332-0.11-0.663-0.219-0.995-0.329c-0.514,1.189-0.854,2.366-1.183,3.619c-0.101,0.385,0.709,0.695,0.938,0.407
					c0.785-0.992,1.465-1.805,2.568-2.479c2.479-1.514,3.273,3.335,3.43,4.324c0.296,1.866,0.139,3.806-0.266,5.639
					c0.277,0.057,0.555,0.114,0.832,0.171c-0.889-2.054-1.026-4.155-0.782-6.353c0.183-1.652,0.86-3.164,1.863-4.47
					c0.504-0.585,1.113-1.037,1.829-1.356c0.547,2.542-0.949,3.167-4.488,1.873c-0.318-0.26-1.141-0.121-0.646,0.284
					c2.661,2.175,7.09,1.581,6.031-2.682c-0.069-0.279-0.521-0.402-0.757-0.323c-5.114,1.706-5.767,8.597-3.868,12.935
					c0.108,0.248,0.738,0.593,0.831,0.171c1.187-5.374-1.289-15.805-7.47-8.213c0.312,0.136,0.625,0.271,0.938,0.407
					c0.334-1.252,0.682-2.434,1.195-3.624c0.172-0.398-0.786-0.697-0.995-0.329c-3.011,5.299-3.268,11.397-3.155,17.353
					c0.007,0.383,0.923,0.653,0.961,0.191c0.416-5.04,0.43-10.044,0.02-15.084c-0.025-0.311-0.727-0.658-0.89-0.298
					c-0.591,1.307-1.727,2.125-2.538,3.267c0.283,0.076,0.566,0.152,0.85,0.228c-0.378-1.357-1.207-2.604-1.267-4.061
					c-0.013-0.304-0.709-0.674-0.784-0.272c-0.093,0.91-0.385,1.742-0.876,2.495c-1.993,2.052-1.682,1.525,0.935-1.581
					C35.769,114.095,35.672,113.677,35.503,113.57L35.503,113.57z"/>
			</g>
		</g>
		<g>
			<g>
				<path fill="#FFFFFF" d="M54.505,109.001c0.351,1.405,1.168,3.04,1.492,4.229c-0.836-3.075,2.424-4.915,4.612-5.699
					c1.918-0.688,0.64,1.853,0.641,1.949c0.03,1.877-0.114,1.083,0.539,2.856c0.094,0.254,0.762,0.554,0.903,0.201
					c0.686-1.715,0.827-2.847,0.698-4.636c-0.392-1.349,0.937-1.481,3.985-0.396c1.219,0.957,2.278,2.401,3.35,3.542
					c0.149,0.158,0.752,0.468,0.872,0.105c0.619-1.876,1.261-3.485,2.529-5.051c2.491-1.101,3.079-0.744,1.764,1.071
					c-0.546,1.205-0.507,1.811-0.629,3.09c-0.032,0.335,0.573,0.487,0.803,0.398c1.109-0.431,1.761-0.823,2.566-1.655
					c0.898-0.929,0.2-1.718,1.035-0.336c0.416,0.689,1.354,1.077,2.129,0.947c3.757-0.632,4.651-8.292,3.926-11.111
					c-0.071-0.277-0.743-0.532-0.891-0.208c-1.954,4.287-1.272,10.455,3.599,12.299c0.532,0.201,0.762-0.293,0.227-0.519
					c-2.759-1.162-3.551-3.637-3.867-6.35c-0.074-1.073,0.008-2.138,0.247-3.194c0.418-1.097,0.436-1.291,0.051-0.58
					c0.169,1.692-3.056,12.84-5.435,6.885c-0.101-0.253-0.759-0.555-0.907-0.199c-0.377,1.279-1.16,2.292-2.348,3.04
					c-0.005,0.003,1.555-4.519,1.819-5.016c0.152-0.287-0.417-0.502-0.6-0.509c-1.827-0.063-2.937,0.265-4.329,1.454
					c-1.492,1.274-1.632,5.469-3.432,3.469c-2.247-2.497-4.393-4.266-7.772-3.112c-0.132,0.045-0.138,0.18-0.105,0.289
					c0.121,2.534,0.555,2.81,1.301,0.828c0.167-0.286-0.405-0.522-0.6-0.507c-4.521,0.351-8.323,2.969-6.881,7.826
					c0.071,0.24,0.641,0.45,0.537,0.069c-0.484-1.786-0.914-3.582-1.398-5.367C54.883,108.912,54.427,108.69,54.505,109.001
					L54.505,109.001z"/>
			</g>
		</g>
		<g>
			<g>
				<path fill="#FFFFFF" d="M54.196,127.815c-1.324,3.805-0.238,8.432-0.168,12.369c0.269,0.062,0.537,0.123,0.806,0.185
					c-1.026-5.186,0.421-13.413,6.482-14.761c-0.254-0.165-0.509-0.33-0.763-0.495c-0.713,1.987-2.413,3.661-4.836,2.766
					c-0.557-0.206-0.764,0.304-0.219,0.542c2.616,1.146,5.125-0.411,6.033-2.972c0.126-0.355-0.525-0.548-0.763-0.495
					c-6.325,1.417-8.023,9.832-6.729,15.305c0.061,0.255,0.816,0.571,0.806,0.184c-0.109-3.998-1.092-8.424,0.049-12.335
					C54.977,127.826,54.313,127.478,54.196,127.815L54.196,127.815z"/>
			</g>
		</g>
		<g>
			<g>
				<path fill="#FFFFFF" d="M64.555,123.371c0.474,1.864,0.804,3.743,1.084,5.645c0.029,0.197,0.592,0.559,0.616,0.246
					c0.349-4.684,3.111-6.775,7.309-8.106c-1.359,0.431-0.37,5.186-0.065,6.062c0.101,0.288,0.603,0.458,0.847,0.271
					c0.901-0.69,1.831-1.453,1.777-2.761c-0.126-3.082,0.05-3.635,3.175-5.031c0.684-0.305,0.345,2.818,0.408,3.27
					c0.108,0.776,0.56,1.353,1.091,1.881c3.652,3.627,6.987-4.444,7.163-6.796c0.021-0.292-0.508-0.524-0.738-0.413
					c-5.552,2.697,0.121,7.507,4.369,6.509c0.414-0.097-0.215-0.669-0.507-0.605c-5.349-0.6-6.705-2.138-4.067-4.615
					c-0.103,1.542-0.875,2.976-1.786,4.172c-0.47,0.556-1.03,1.007-1.68,1.353c-4.482,2.643-2.7-5.233-2.642-5.498
					c0.076-0.344-0.459-0.604-0.742-0.484c-1.97,0.831-3.897,1.687-5.777,2.706c-0.104,0.057-0.169,0.171-0.106,0.287
					c0.829,1.167,1.051,2.503,0.668,4.006c-0.383-0.298-0.766-0.597-1.148-0.896c0.083-1.37,0.445-2.648,1.088-3.835
					c0.159-0.351-0.493-0.547-0.724-0.486c-2.804,0.741-5.223,1.653-7.166,3.87c-0.429,0.49-0.963,1.541-1.086,2.176
					c-0.56,0.744-0.551,1.202,0.026,1.375c-0.291-1.416-0.583-2.803-0.968-4.197C64.922,123.289,64.477,123.067,64.555,123.371
					L64.555,123.371z"/>
			</g>
		</g>
		<g>
			<g>
				<path fill="#FFFFFF" d="M97.405,112.697c-1.65,0.962-1.901,2.501-1.652,4.285c0.193,1.381,1.984,5.167-0.256,5.515
					c0.207,0.163,0.414,0.327,0.62,0.49c1.967-3.932,6.11-5.955,9.132-8.948c-0.248-0.151-0.496-0.302-0.744-0.453
					c-1.437,3.099,2.695,8.383-1.784,9.757c-0.455,0.14,0.315,0.687,0.647,0.589c4.902-1.434,0.511-6.743,1.927-9.949
					c0.136-0.309-0.526-0.675-0.744-0.453c-2.996,3.052-7.283,5.027-9.166,9.05c-0.148,0.316,0.393,0.526,0.62,0.49
					c1.591-0.254,1.415-1.696,1.139-2.957c-0.503-2.295-1.877-5.367,0.665-6.95C98.055,113.01,97.614,112.575,97.405,112.697
					L97.405,112.697z"/>
			</g>
		</g>
	</g>
	<g>
		<g>
			<g>
				<path fill="#FFFFFF" d="M16.555,41.506c0.265,5.159,0.646,10.287,1.374,15.403c0.049,0.348,0.922,0.643,0.883,0.232
					c-0.42-4.455,0.066-8.987,1.807-13.129c0.651-1.549,1.648-2.724,2.979-3.719c4.352-3.251,1.998,1.317,1.522,1.961
					c-0.715,0.969-1.699,1.771-2.67,2.458c3.276-2.319,5.188-2.122,7.738,0.881c0.144,0.17,0.642,0.42,0.831,0.171
					c1.36-1.803,2.7-3.575,4.428-5.042c1.17-0.993,2.72-1.504,4.154-1.936c2.324-0.7,0.357,1.288-0.2,2.513
					c-0.168,0.37,0.758,0.73,0.939,0.353c1.361-2.839,4.433-3.087,5.87-5.557c0.399-0.686-0.192-0.518-0.007,0.93
					c0.181,1.419,0.375,2.837,0.542,4.259c0.35,2.961,0.542,5.961,0.058,8.917c-0.261,1.592-0.978,2.593-2.381,3.612
					c-3.608,2.619-4.514-5.316-4.495-6.742c0.005-0.363-0.877-0.655-0.894-0.227c-0.182,4.503,2.316,10.338,7.307,6.704
					c4.327-3.151,0.914-14.446,0.545-18.671c-0.031-0.357-0.738-0.616-0.936-0.278c-1.726,2.935-5.064,3.58-6.547,6.7
					c0.313,0.118,0.626,0.235,0.939,0.353c0.582-1.291,1.211-2.404,1.989-3.586c0.201-0.306-0.533-0.54-0.717-0.501
					c-2.544,0.538-4.866,1.151-7.006,2.667c-1.093,0.774-1.956,1.894-2.799,2.914c-1.567,1.897-1.168,1.598-2.989,0.25
					c-3.004-2.224-6.923-1.916-7.826,2.047c-0.086,0.377,0.568,0.567,0.834,0.479c2.145-0.71,6.211-3.763,5.498-6.392
					c-0.561-2.064-4.554,0.202-5.283,0.751c-3.441,2.593-4.031,8.23-4.285,12.167c-0.062,0.97-0.031,1.943,0.005,2.914
					c-0.167,0.966,0.083,1.096,0.752,0.389c-0.167-0.957-0.312-1.917-0.434-2.881c-0.514-3.7-0.715-7.437-1.035-11.155
					C17.026,41.504,16.539,41.208,16.555,41.506L16.555,41.506z"/>
			</g>
		</g>
		<g>
			<g>
				<path fill="#FFFFFF" d="M44.209,25.696c0.457,0,0.011-0.568-0.282-0.568C43.47,25.128,43.916,25.696,44.209,25.696
					L44.209,25.696z"/>
			</g>
		</g>
		<g>
			<g>
				<path fill="#FFFFFF" d="M49.657,39.564c2.401-0.524,3.877-2.035,4.009-4.53c0.013-0.249-0.288-0.418-0.501-0.434
					c-2.433-0.169-3.715,1.556-3.307,3.883c0.428,2.437,2.676,4.125,5.054,4.283c0.595,0.04,0.177-0.592-0.21-0.621
					c-2.2-0.165-3.831-1.794-4.118-3.966c-0.25-1.888,1.033-3.109,2.876-3.003c-0.167-0.144-0.334-0.289-0.502-0.434
					c-0.048,2.321-1.341,3.805-3.576,4.34C49.072,39.157,49.436,39.612,49.657,39.564L49.657,39.564z"/>
			</g>
		</g>
		<g>
			<g>
				<path fill="#FFFFFF" d="M61.398,34.042c-4.35,1.462,0.265,6.837,3.791,5.203c4.101-1.901,4.221-8.915,3.577-12.684
					c-0.05-0.291-0.724-0.554-0.813-0.18c-0.855,3.557-0.02,8.421,3.014,10.774c0.225,0.174,0.822,0.155,0.49-0.217
					c-2.475-2.776-3.505-6.653-2.679-10.3c-0.271-0.06-0.542-0.12-0.813-0.18c0.477,2.574,0.264,5.347-0.343,7.878
					c-0.367,1.533-1.065,3.047-2.333,4.029c-2.579,1.999-7.373-2.168-3.609-3.914C61.893,34.351,61.579,33.982,61.398,34.042
					L61.398,34.042z"/>
			</g>
		</g>
		<g>
			<g>
				<path fill="#FFFFFF" d="M65.245,31.542c2.188-0.155,4.366-0.142,6.53-0.548c0.28-0.053-0.022-0.481-0.222-0.445
					c-2.158,0.386-4.341,0.377-6.52,0.556C64.758,31.127,65.048,31.557,65.245,31.542L65.245,31.542z"/>
			</g>
		</g>
		<g>
			<g>
				<path fill="#FFFFFF" d="M56.165,50.199c-0.067,2.04-0.173,4.066-0.131,6.109c0.005,0.255,0.639,0.671,0.762,0.339
					c0.817-2.195,1.733-4.226,3.018-6.195c-0.287-0.051-0.573-0.103-0.859-0.154c0.999,1.226,2.002,2.358,2.648,3.827
					c0.144,0.328,0.854,0.476,1.029,0.118c0.923-1.891,1.982-3.408,3.599-4.771c-0.313-0.08-0.627-0.161-0.94-0.241
					c1.863,2.752,3.441,6.185,7.309,4.611c0.43-0.175-0.262-0.689-0.566-0.583c-3.264,1.15-4.304-2.036-5.718-4.118
					c-0.161-0.237-0.681-0.46-0.94-0.241c-1.681,1.42-2.854,3.063-3.799,5.044c0.343,0.04,0.686,0.079,1.029,0.118
					c-0.696-1.527-1.74-2.669-2.817-3.939c-0.14-0.166-0.69-0.422-0.859-0.153c-1.252,1.989-2.189,4.022-2.875,6.271
					c0.254,0.113,0.508,0.226,0.762,0.339c-0.201-2.081-0.11-4.116-0.102-6.182C56.714,50.162,56.176,49.865,56.165,50.199
					L56.165,50.199z"/>
			</g>
		</g>
		<g>
			<g>
				<path fill="#FFFFFF" d="M74.751,47.724c-2.103,1.123-2.951,3.132-2.581,5.46c0.032,0.198,0.408,0.485,0.604,0.334
					c1.422-1.104,2.695-1.905,3.345-3.636c-0.263-0.084-0.526-0.169-0.789-0.253c0.593,1.362,1.403,2.213,2.366,3.327
					c0.135,0.156,0.589,0.436,0.78,0.198c1.039-1.298,2.203-2.375,3.004-3.844c-0.301-0.067-0.603-0.134-0.904-0.2
					c0.345,1.303,0.831,2.547,1,3.896c0.039,0.31,0.841,0.672,0.948,0.272c0.632-2.362,1.648-5.729,4.54-2.865
					c0.964,0.955,1.802,2.007,2.815,2.916c0.272,0.244,1.032,0.223,0.615-0.227c-1.527-1.646-2.938-3.766-5.069-4.667
					c-2.502-1.057-3.45,2.995-3.838,4.489c0.316,0.091,0.632,0.182,0.948,0.272c-0.184-1.405-0.693-2.685-1.062-4.051
					c-0.08-0.297-0.736-0.512-0.904-0.2c-0.658,1.219-1.435,2.051-2.349,3.033c-0.74,0.795-2.152-2.367-2.13-2.322
					c-0.082-0.17-0.649-0.468-0.752-0.174c-0.488,1.39-1.421,2.198-2.553,3.063c-0.214-1.279,0.097-2.411,0.934-3.395
					c0.372-0.439,0.803-0.809,1.294-1.107C75.152,47.943,74.898,47.646,74.751,47.724L74.751,47.724z"/>
			</g>
		</g>
		<g>
			<g>
				<path fill="#FFFFFF" d="M95.477,43.536c-1.588,0.702-3.538,2.772-1.719,4.382c1.901,1.683,3.668-0.476,4.426-2.149
					c-0.283-0.105-0.565-0.209-0.848-0.314c-0.229,1.137-0.229,2.443,0.619,3.333c0.782,0.82,1.958,0.867,3,0.675
					c0.396-0.073-0.174-0.632-0.446-0.591c-0.888,0.133-1.691,0.125-2.154-0.772c-0.374-0.724-0.256-1.632-0.155-2.404
					c0.041-0.309-0.726-0.645-0.848-0.314c-0.389,1.049-1.978,3.619-3.282,2.1c-1.187-1.382,0.752-2.949,1.837-3.47
					C96.172,43.884,95.707,43.434,95.477,43.536L95.477,43.536z"/>
			</g>
		</g>
		<g>
			<g>
				<path fill="#FFFFFF" d="M103.579,43.243c-1.249,0.982-2.362,1.898-3.432,3.079c-0.171,0.189,0.307,0.584,0.489,0.445
					c0.918-0.702,1.495-1.747,2.118-0.42c0.809,1.722,1.039,3.789,1.167,5.655c0.215,3.138-0.424,6.617-2.673,8.933
					c-1.542,1.589-1.616-1.153-1.166-2.112c0.798-1.698,2.04-3.217,3.171-4.697c2.378-3.112,4.814-5.996,6.357-9.638
					c0.116-0.274-0.327-0.576-0.567-0.456c-2.313,1.149-3.714,3.862-0.893,5.453c1.142,0.644,2.302,0.467,3.485,0.093
					c1.17-0.37,2.04-1.479,2.804-2.352c0.375-0.429,0.459,3.669,0.45,3.859c-0.015,0.317,0.791,0.654,0.887,0.3
					c0.977-3.592,3.56-6.297,4.65-0.641c0.071,0.368,0.759,0.613,0.976,0.258c0.879-1.436,1.657-2.896,2.426-4.394
					c2.028-3.953,1.744,1.648,2.039,3.33c0.06,0.342,0.687,0.531,0.955,0.343c3.307-2.318,7.476-2.734,9.646-6.436
					c0.196-0.334-0.59-0.542-0.782-0.492c-2.505,0.65-3.801,2.764-1.772,4.877c2.521,2.625,5.728-1.104,6.951-2.978
					c-0.318-0.134-0.636-0.268-0.954-0.401c-0.192,1.103-0.383,2.205-0.575,3.308c-0.071,0.407,0.693,0.675,0.954,0.401
					c2.611-2.742,2.829-0.012,5.347,0.84c1.613,0.546,2.827,0.618,4.446,0.07c4.525-1.528,5.639-8.188,5.516-12.196
					c-0.012-0.383-0.742-0.534-0.979-0.308c-3.422,3.27-1.689,15.949,3.445,11.273c0.304-0.276-0.452-0.723-0.718-0.508
					c-4.275,3.456-3.667-7.07-3.269-8.274c1.283-3.867,0.229,1.784-0.064,3.006c-1.07,4.462-5.465,9.954-11.198,3.782
					c-0.176-0.19-0.559-0.342-0.805-0.196c-1.029,0.609-1.814,1.178-2.63,2.034c0.318,0.134,0.636,0.268,0.954,0.402
					c0.192-1.103,0.383-2.206,0.575-3.308c0.065-0.377-0.74-0.728-0.954-0.401c-0.476,0.861-1.058,1.642-1.745,2.344
					c-3.254,1.39-4.657,0.852-4.207-1.614c1.16-1.314,1.198-1.371,0.114-0.171c-0.899,0.737-1.881,1.33-2.945,1.779
					c-1.426,0.688-2.9,1.212-4.297,1.966c0.19-0.103-1.124-5.148-1.256-5.642c-0.079-0.295-0.784-0.645-0.995-0.3
					c-1.499,2.454-2.698,5.062-4.188,7.521c0.326,0.086,0.651,0.172,0.977,0.258c-0.411-1.743-1.047-3.243-1.741-4.89
					c-0.106-0.252-0.518-0.439-0.773-0.318c-1.241,0.586-2.415,1.213-3.03,2.561c-0.739,1.623-0.018,2.297-0.026,0.113
					c-0.004-1.127-0.192-1.648-0.458-2.72c-0.068-0.272-0.632-0.522-0.814-0.244c-0.652,1.254-1.537,2.289-2.653,3.105
					c-4.572-0.655-5.67-1.827-3.295-3.516c-1.478,1.191-2.889,4.766-4.167,6.396c-2.668,3.401-5.411,6.572-6.446,10.863
					c-0.057,0.236,0.363,0.457,0.547,0.437c7.858-0.838,7.121-12.835,4.015-17.836c-0.075-0.121-0.392-0.321-0.533-0.193
					c-1.974,1.799,1.739-1.001,1.841-1.088C104.023,43.464,103.728,43.126,103.579,43.243L103.579,43.243z"/>
			</g>
		</g>
		<g>
			<g>
				<path fill="#FFFFFF" d="M149.964,42.166c1.961,0.095,3.911-0.217,5.872-0.167c0.401,0.01,0.055-0.503-0.201-0.514
					c-1.978-0.079-3.938,0.215-5.917,0.182C149.417,41.661,149.758,42.156,149.964,42.166L149.964,42.166z"/>
			</g>
		</g>
	</g>
	<g>
		<g>
			<path fill="#FFFFFF" d="M308.628,35.622c0.886,13.464-2.232,27.554-13.836,35.73c-0.726,0.511,0.839,1.71,1.471,1.265
				c11.771-8.293,15.066-22.569,14.164-36.27C310.376,35.574,308.574,34.808,308.628,35.622L308.628,35.622z"/>
		</g>
	</g>
	<g>
		<g>
			<path fill="#FFFFFF" d="M352.569,108.368c8.588,3.197,18.539-5.273,24.156-10.655c3.559-3.41,6.722-7.249,9.714-11.156
				c2.705-3.532,6.607-7.913,7.951-12.203c0.214-0.682-1.213-1.416-1.673-0.888c-2.33,2.677-3.978,6.128-6.014,9.051
				c-3.2,4.596-6.754,8.944-10.635,12.981c-3.231,3.362-6.827,6.361-10.815,8.783c-4.362,2.65-8.137,2.661-12.94,3.297
				C351.899,107.634,352.383,108.299,352.569,108.368L352.569,108.368z"/>
		</g>
	</g>
	<g>
		<g>
			<path fill="#FFFFFF" d="M382.362,143.534c-10.435,0.073-20.267,3.042-29.506,7.825c-0.71,0.368,0.688,1.616,1.342,1.249
				c8.853-4.97,18.298-7.887,28.494-8.175C383.239,144.418,382.752,143.531,382.362,143.534L382.362,143.534z"/>
		</g>
	</g>
	<g>
		<g>
			<path fill="#FFFFFF" d="M341.836,233.466c12.273-2.156,19.955-11.92,27.482-20.964c0.478-0.574-1.109-1.687-1.582-1.037
				c-6.808,9.368-14.733,18.457-26.518,21.036C340.716,232.612,341.399,233.542,341.836,233.466L341.836,233.466z"/>
		</g>
	</g>
	<g>
		<g>
			<path fill="#FFFFFF" d="M218.476,249.717c-5.626-2.104,1.976,13.523,2.529,14.423c5.418,8.814,14.205,16.091,25.008,15.516
				c0.862-0.045-0.285-1.4-0.971-1.344c-9.389,0.774-16.888-5.631-22.04-12.814c-2.191-3.056-4-6.494-5.201-10.058
				c-0.413-1.227-1.926-6.116,0.778-5.189C218.862,250.348,218.674,249.792,218.476,249.717L218.476,249.717z"/>
		</g>
	</g>
	<g>
		<g>
			<path fill="#FFFFFF" d="M126.735,241.1c-0.971-16.875,23.889-27.866,37.908-25.46c1.203,0.207,0.534-1.138-0.232-1.312
				c-14.134-3.231-42.121,9.281-38.086,26.604C126.362,241.092,126.755,241.439,126.735,241.1L126.735,241.1z"/>
		</g>
	</g>
	<g>
		<g>
			<path fill="#FFFFFF" d="M161.64,162.82c-3.923-4.527-11.012-5.104-16.621-5.109c-6.487-0.007-13.941,1.588-18.301,6.756
				c-0.49,0.58,1.093,1.65,1.619,1.035c3.746-4.382,9.515-5.835,15.045-6.376c5.499-0.539,13.876-0.111,18.087,4.077
				C161.735,163.467,161.795,163,161.64,162.82L161.64,162.82z"/>
		</g>
	</g>
	<g>
		<g>
			<path fill="#FFFFFF" d="M100.676,100.531c9.565,1.729,17.901,5.363,25.916,10.809c6.064,4.121,11.574,9,17.625,13.136
				c0.986,0.674,1.566-0.303,0.621-0.982c-14.004-10.077-26.766-21.434-44.459-24.056C99.56,99.315,100.165,100.438,100.676,100.531
				L100.676,100.531z"/>
		</g>
	</g>
	<g>
		<g>
			<path fill="#FFFFFF" d="M144.381,58.375c13.765,9.236,25.307,19.668,35.479,32.756c0.484,0.623,2.01,0.774,1.335-0.296
				c-8.67-13.738-22.943-24.719-36.521-33.244C143.935,57.128,143.819,57.998,144.381,58.375L144.381,58.375z"/>
		</g>
	</g>
	<g>
		<g>
			<path fill="#FFFFFF" d="M294.405,58.458c-2.025,5.124-2.466,13.271-0.697,18.497c0.125,0.37,0.567,0.753,0.979,0.713
				c4.742-0.472,10.311-1.406,14.143-4.463c0.458-0.365-0.599-1.287-1.046-1.066c-4.501,2.216-8.777,3.751-13.804,4.313
				c0.326,0.238,0.652,0.476,0.979,0.713c-1.95-5.429-0.982-12.602,0.197-18.135C295.219,58.73,294.565,58.054,294.405,58.458
				L294.405,58.458z"/>
		</g>
	</g>
	<g>
		<g>
			<path fill="#FFFFFF" d="M375.071,80.538c7.131-1.228,14.333-2.216,21.546-2.812c-0.417-0.35-0.834-0.699-1.251-1.049
				c-0.72,5.013-1.65,10.171-1.786,15.235c-0.018,0.668,1.522,1.611,1.654,0.753c0.768-4.999,1.428-10.17,1.694-15.222
				c0.031-0.589-0.685-1.139-1.251-1.049c-7.034,1.115-14.097,1.919-21.094,3.279C374.145,79.758,374.685,80.604,375.071,80.538
				L375.071,80.538z"/>
		</g>
	</g>
	<g>
		<g>
			<path fill="#FFFFFF" d="M358.245,144.309c0.215-1.024,0.191-0.742,0.139-1.724c-0.019-0.323-0.604-1.101-0.973-0.719
				c-4.479,4.652-9.05,9.359-11.988,15.173c-0.256,0.507,0.354,0.976,0.769,1.13c4.612,1.727,9.563,2.401,14.354,3.476
				c1.101,0.247,0.543-1.022-0.153-1.222c-4.751-1.364-9.701-1.779-14.363-3.486c0.257,0.377,0.513,0.753,0.77,1.13
				c2.803-5.87,7.296-10.425,11.507-15.284c-0.319-0.198-0.639-0.396-0.958-0.593c0.041,0.543,0.082,1.087,0.123,1.631
				C357.411,144.183,358.138,144.822,358.245,144.309L358.245,144.309z"/>
		</g>
	</g>
	<g>
		<g>
			<path fill="#FFFFFF" d="M356.605,214.485c0.749-2.179,5.149-2.78,7.013-3.211c3.043-0.703,6.148-1.092,9.216-1.666
				c-0.521-0.354-1.041-0.708-1.562-1.062c-1.058,6.051-1.783,11.894-3.418,17.823c-0.181,0.655,1.307,1.511,1.71,0.884
				c3.145-4.896,2.812-12.417,3.597-18.006c0.1-0.714-1.011-1.172-1.562-1.063c-3.271,0.646-6.564,1.135-9.805,1.931
				c-2.122,0.521-5.582,1.167-6.164,3.636C355.526,214.191,356.42,215.027,356.605,214.485L356.605,214.485z"/>
		</g>
	</g>
	<g>
		<g>
			<path fill="#FFFFFF" d="M213.643,268.698c1.629-6.373,2.11-12.986,3.609-19.392c-0.517-0.144-1.033-0.287-1.55-0.43
				c1.916,3.328,4.004,6.585,6.23,9.714c0.404,0.568,1.774,0.819,1.218-0.186c-1.833-3.312-4.11-6.357-6.056-9.604
				c-0.188-0.314-1.343-0.968-1.447-0.255c-0.961,6.57-1.641,13.181-2.482,19.767C213.136,268.532,213.553,269.05,213.643,268.698
				L213.643,268.698z"/>
		</g>
	</g>
	<g>
		<g>
			<path fill="#FFFFFF" d="M131.615,154.158c-1.868,4.094-5.252,6.836-8.458,9.853c-0.375,0.353,0.385,0.989,0.665,1.079
				c4.448,1.428,8.674,3.218,12.898,5.205c1.083,0.509,1.016-0.702,0.212-1.114c-4.218-2.162-8.665-3.896-13.208-5.238
				c0.222,0.36,0.443,0.719,0.665,1.079c2.985-3.065,6.736-5.938,8.075-10.162C132.586,154.469,131.833,153.681,131.615,154.158
				L131.615,154.158z"/>
		</g>
	</g>
	<g>
		<g>
			<path fill="#FFFFFF" d="M141.787,111.23c-1.195,4.193,1.5,9.097,3.045,12.876c1.25,3.056-0.345,3.548-2.573,4.681
				c-2.141,1.089-4.29,2.232-6.141,3.771c-0.702,0.584,0.795,1.62,1.415,1.259c3.324-1.935,6.634-3.83,10.022-5.655
				c0.229-0.124,0.181-0.433,0.087-0.62c-2.507-5.023-5.197-10.272-5.33-15.979C142.308,111.366,141.892,110.865,141.787,111.23
				L141.787,111.23z"/>
		</g>
	</g>
	<g>
		<g>
			<path fill="#FFFFFF" d="M150.582,73.526c-2.822-5.843-5.4-11.688-7.979-17.65c-0.253,0.207-0.506,0.413-0.759,0.619
				c7.453,0.385,14.849-0.059,22.284,0.808c1.041,0.122,0.136-1.232-0.447-1.355c-7.283-1.54-14.917-0.655-22.301-0.964
				c-0.324-0.014-0.995,0.111-0.759,0.619c2.841,6.111,4.877,13.19,9.558,18.214C150.452,74.11,150.75,73.873,150.582,73.526
				L150.582,73.526z"/>
		</g>
	</g>
	<g>
		<g>
			<path fill="#FFFFFF" d="M155.77,205.49c-0.018-0.406-0.036-0.812-0.053-1.217c-0.238-0.056-0.475-0.11-0.712-0.166
				c2.947,4.385,7.196,7.253,11.032,10.764c-0.113-0.299-0.226-0.598-0.338-0.896c-1.201,2.451-2.249,4.91-3.956,7.065
				c-0.421,0.531,0.818,1.506,1.286,1.019c1.919-2.001,2.846-4.718,4.016-7.187c0.123-0.259-0.22-0.642-0.396-0.774
				c-4.024-3.039-8.075-6.182-11.09-10.264c-0.213-0.288-0.822-0.334-0.606,0.158c0.161,0.466,0.321,0.932,0.482,1.398
				C155.478,205.578,155.823,205.813,155.77,205.49L155.77,205.49z"/>
		</g>
	</g>
</g>
</svg>
