<?xml version="1.0" encoding="utf-8"?>
<!-- Generator: Adobe Illustrator 16.0.4, SVG Export Plug-In . SVG Version: 6.00 Build 0)  -->
<!DOCTYPE svg PUBLIC "-//W3C//DTD SVG 1.1//EN" "http://www.w3.org/Graphics/SVG/1.1/DTD/svg11.dtd">
<svg version="1.1" id="dotapprove" xmlns="http://www.w3.org/2000/svg" xmlns:xlink="http://www.w3.org/1999/xlink" x="0px" y="0px"
	 width="230.159px" height="41.436px" viewBox="0 0 230.159 41.436" enable-background="new 0 0 230.159 41.436"
	 xml:space="preserve">
<g>
	<path d="M6.373,3.932c3.161,0,5.441,0.548,7.326,2.127c2.461,2.067,3.891,5.197,3.891,8.633c0,3.891-1.611,7.121-4.316,9.066
		c-2.431,1.732-4.833,1.793-7.842,1.793H0.233V3.932H6.373z M2.331,23.514h4.407c5.624,0,8.573-3.35,8.573-8.882
		c0-2.856-1.064-5.32-2.918-6.93C10.6,6.151,8.683,5.999,6.223,5.999H2.331V23.514z"/>
	<path d="M25.482,6.637c2.098-2.067,4.651-3.132,7.63-3.132c3.04,0,5.624,1.064,7.751,3.163c2.188,2.157,3.313,4.862,3.313,7.935
		c0,3.07-0.942,5.622-2.858,7.728c-2.188,2.4-4.985,3.646-8.237,3.646c-6.201,0-10.973-4.924-10.973-11.375
		C22.109,11.592,23.294,8.796,25.482,6.637z M33.235,23.942c4.862,0,8.754-4.053,8.754-9.371c0-4.804-3.893-8.998-8.906-8.998
		c-2.006,0-3.892,0.698-5.442,2.005c-2.037,1.732-3.312,4.408-3.312,7.053C24.329,19.983,28.28,23.942,33.235,23.942z"/>
	<path d="M51.458,25.551V6.059H47.14V3.932h10.761v2.127h-4.316v19.492H51.458z"/>
	<path d="M66.105,25.551h-5.776l8.298-21.619h4.316l8.298,21.619h-5.836l-1.065-3.131h-7.143L66.105,25.551z M70.786,11.014
		l-2.159,6.931h4.286L70.786,11.014z"/>
	<path d="M85.221,25.551V3.932h7.175c2.279,0,4.011,0.151,5.471,1.187c1.917,1.336,2.918,3.374,2.918,6.077
		c0,2.797-1.276,5.109-3.435,6.415c-1.368,0.819-3.07,0.972-5.319,0.972H90.51v6.967h-5.29V25.551z M91.543,13.901
		c2.615,0,3.891-0.668,3.891-2.614c0-1.793-1.124-2.523-3.464-2.523h-1.397v5.137H91.543z"/>
	<path d="M107.071,25.551V3.932h7.175c2.279,0,4.012,0.151,5.472,1.187c1.914,1.336,2.916,3.374,2.916,6.077
		c0,2.797-1.276,5.109-3.433,6.415c-1.369,0.819-3.072,0.972-5.32,0.972h-1.521v6.967h-5.289V25.551z M113.393,13.901
		c2.614,0,3.891-0.668,3.891-2.614c0-1.793-1.124-2.523-3.465-2.523h-1.398v5.137H113.393z"/>
	<path d="M128.921,25.551V3.932h7.175c2.281,0,4.012,0.151,5.472,1.187c1.915,1.336,2.918,3.374,2.918,6.047
		c0,3.496-1.824,6.11-4.894,6.96l5.289,7.423h-6.537l-4.133-6.967v6.967h-5.29V25.551z M135.246,13.901
		c2.614,0,3.89-0.668,3.89-2.614c0-1.793-1.125-2.523-3.465-2.523h-1.459v5.137H135.246z"/>
	<path d="M153.298,6.698c2.125-2.098,4.801-3.161,7.872-3.161c2.889,0,5.624,1.125,7.722,3.191c2.187,2.159,3.342,4.924,3.342,7.875
		c0,3.1-1.093,5.867-3.131,7.97c-2.098,2.189-4.954,3.373-7.962,3.373c-3.193,0-5.927-1.154-8.057-3.404
		c-2.037-2.164-3.069-4.839-3.069-8.03C150.014,11.53,151.168,8.796,153.298,6.698z M161.14,20.59c3.1,0,5.621-2.492,5.621-6.019
		c0-3.161-2.521-5.684-5.562-5.684c-3.223,0-5.746,2.523-5.746,5.684C155.454,17.975,158.16,20.59,161.14,20.59z"/>
	<path d="M182.593,25.551l-6.687-21.619h5.471l4.074,14.47l4.072-14.47h5.473l-6.689,21.619H182.593z"/>
	<path d="M199.614,25.551V3.932h11.732v4.772h-6.443V12.2h6.443v4.803h-6.443v3.768h6.443v4.779H199.614z"/>
	<g>
		<path d="M91.513,40.157l-0.972-2.58h-3.147l-0.973,2.58h-1.35l3.327-8.764h1.149l3.329,8.764H91.513z M90.104,36.402l-1.111-3.346
			h-0.026l-1.126,3.346H90.104z"/>
		<path d="M97.459,40.157h-1.278v-8.764h2.534c2.097,0,3.091,1.09,3.091,2.654c0,1.562-0.995,2.654-3.091,2.654h-1.256V40.157z
			 M97.459,35.529h1.256c1.458,0,1.812-0.828,1.812-1.48s-0.354-1.48-1.812-1.48h-1.256V35.529z"/>
		<path d="M103.685,40.157v-8.764h4.726v1.174h-3.448v2.582h3.448v1.17h-3.448v2.666h3.448v1.172H103.685L103.685,40.157z"/>
		<path d="M114.921,40.157l-2.89-4.061h-0.024v4.061h-1.279v-8.764h2.711c1.231,0,1.87,0.297,2.332,0.734
			c0.558,0.537,0.805,1.34,0.805,2.074c0,2.322-1.942,2.686-2.51,2.686l2.452,3.27H114.921L114.921,40.157z M112.007,35.917h0.875
			c0.523,0,2.418-0.023,2.418-1.715c0-0.734-0.501-1.635-1.943-1.635h-1.351V35.917z"/>
		<path d="M118.766,40.157v-8.764h1.277v8.764H118.766z"/>
		<path d="M125.478,40.157l-3.53-8.764h1.374l2.545,6.574l2.548-6.574h1.348l-3.517,8.764H125.478z"/>
		<path d="M136.18,40.157l-0.971-2.58h-3.149l-0.972,2.58h-1.35l3.327-8.764h1.149l3.328,8.764H136.18z M134.771,36.402
			l-1.112-3.346h-0.024l-1.125,3.346H134.771z"/>
		<path d="M145.096,40.157l-4.336-6.771h-0.022v6.771h-1.279v-8.764h1.396l4.265,6.668h0.025v-6.668h1.277v8.764H145.096z"/>
		<path d="M152.081,37.564c0,0.299,0.13,1.588,1.422,1.588c0.805,0,1.406-0.555,1.406-1.48c0-0.982-0.802-1.195-1.406-1.432
			c-1.172-0.451-1.457-0.596-1.862-0.984c-0.403-0.391-0.591-1.031-0.591-1.648c0-1.018,0.793-2.379,2.453-2.379
			c1.457,0,2.512,0.959,2.512,2.439h-1.28c0-0.971-0.709-1.268-1.232-1.268c-0.758,0-1.17,0.686-1.17,1.195
			c0,0.844,0.794,1.068,1.17,1.211c1.102,0.412,2.687,0.756,2.687,2.863c0,1.529-1.075,2.654-2.687,2.654
			c-1.209,0-2.699-0.805-2.699-2.76H152.081L152.081,37.564z"/>
		<path d="M162.393,40.325c-2.618,0-4.557-2.143-4.557-4.549c0-2.381,1.883-4.549,4.557-4.549c2.605,0,4.559,2.072,4.559,4.572
			C166.952,38.195,164.998,40.325,162.393,40.325z M162.393,32.4c-2.262,0-3.279,1.979-3.279,3.377c0,1.434,1.03,3.375,3.279,3.375
			c2.261,0,3.281-1.965,3.281-3.342C165.673,34.261,164.571,32.4,162.393,32.4z"/>
		<path d="M169.221,40.157v-8.764h1.278v7.592h3.043v1.172H169.221z"/>
		<path d="M181.166,37.329c0,0.994-0.331,1.717-0.887,2.248c-0.544,0.451-1.245,0.748-2.049,0.748c-0.805,0-1.502-0.297-2.05-0.748
			c-0.556-0.533-0.887-1.254-0.887-2.248v-5.936h1.279v5.898c0,1.621,1.184,1.859,1.658,1.859c0.474,0,1.657-0.238,1.657-1.859
			v-5.898h1.279V37.329z"/>
		<path d="M184.692,40.157v-7.59h-1.682v-1.174h4.643v1.174h-1.682v7.59H184.692z"/>
		<path d="M189.52,40.157v-8.764h1.279v8.764H189.52z"/>
		<path d="M197.571,40.325c-2.615,0-4.557-2.143-4.557-4.549c0-2.381,1.883-4.549,4.557-4.549c2.607,0,4.561,2.072,4.561,4.572
			C202.131,38.195,200.178,40.325,197.571,40.325z M197.571,32.4c-2.26,0-3.277,1.979-3.277,3.377c0,1.434,1.029,3.375,3.277,3.375
			c2.266,0,3.283-1.965,3.283-3.342C200.854,34.261,199.75,32.4,197.571,32.4z"/>
		<path d="M209.989,40.157l-4.33-6.771h-0.025v6.771h-1.281v-8.764h1.4l4.26,6.668h0.029v-6.668h1.277v8.764H209.989z"/>
	</g>
	<g>
		<path d="M228.049,7.236c0,3.281-2.68,5.915-5.9,5.915c-3.312,0-5.93-2.678-5.93-5.915c0-3.221,2.602-5.916,5.93-5.916
			C225.432,1.321,228.049,3.999,228.049,7.236z M217.458,7.236c0,2.602,2.059,4.738,4.678,4.738c2.584,0,4.674-2.105,4.674-4.738
			c0-2.57-2.027-4.74-4.674-4.74C219.471,2.496,217.458,4.666,217.458,7.236z M222.459,3.907c0.418,0,2.387,0,2.387,1.843
			c0,0.743-0.342,1.423-1.256,1.641v0.031c0.928,0.262,1.098,0.82,1.129,1.687c0.062,1.146,0.062,1.285,0.219,1.564h-1.162
			c-0.125-0.2-0.17-0.402-0.199-1.254c-0.047-1.069-0.264-1.362-1.428-1.457h-1.377v2.712h-1.162V3.907H222.459z M220.772,6.88
			h1.393c0.479,0,1.518,0,1.518-1.085c-0.076-0.712-0.789-0.789-1.361-0.789h-1.551V6.88H220.772z"/>
	</g>
</g>
</svg>
